<svg xmlns="http://www.w3.org/2000/svg" viewBox="-41 -311 843 619" aria-hidden="true" focusable="false"><g class="gl" data-g0="0" data-g1=".62" data-sp="-30 6 12 -7 0.5 11.5 24.5 -8 11 62.5 -17.5 10.5 103 -27.5 10 145 -37 10 184.5 -45 9.5 220 -50 9 251 -51.5 8.5 279.5 -50 8.5 307 -47 8 334 -43.5 7.5 361.5 -40.5 7.5 390 -39 7 420 -40 6.5 454.5 -44.5 6.5 492.5 -51.5 6 532.5 -60 5.5 572 -69 5.5 608 -77.5 5 638 -85 5 660 -90 4.5"><path class="wash bark" style="--dl:.011;--dh:.6;--dc:.91;--pc:var(--bark)" d="M-33-5.5c2-.5 6.5-1.5 10.5-2.5s8-1.5 12.5-2.5s10-2.5 15-4s11-2.5 17-4s12-3 18-4.5s13-3 19.5-5s13.5-3 20.5-4.5s14-3.5 21-5s14-3.5 21-5s14-3 21-4s13.5-3 20.5-4.5s13-2 19.5-3.5s13-1.5 19-2.5s11.5-1.5 17-2s11-1 16.5-1s10.5-.5 15.5 0s10 0 15 .5s9.5.5 14.5 1s9 1 14 1.5s9 1 13.5 2s9 1 13.5 2s9 1 13.5 2s9 1 13.5 1.5s9 1.5 13.5 2s9 .5 14 1s9 .5 14 .5s9.5.5 14.5 0s9.5-.5 15-.5s10.5-1 16-2s11.5-1.5 18-2s12-2 18.5-3.5s13-2 19.5-3.5s13-2.5 20-3.5s13.5-3 20-4.5s13-3 19.5-4.5s13.5-2.5 19.5-4s12.5-3 18.5-4.5s12-3 17.5-4s11-2.5 16-4s10-2 14.5-3s8.5-2 12-3s7-2 10-2s7.5 1.5 8 3s-3.5 4.5-6 6s-6 1.5-10 2s-7.5 2-12 3s-9 2.5-14 4s-10.5 2.5-16 4s-11.5 2.5-17.5 4s-12 3.5-18.5 5s-12.5 3-19 4.5s-13.5 3-20 4.5s-13.5 3.5-20 5s-13.5 2.5-20 4s-13.5 2.5-20 4s-12.5 2.5-18.5 3.5s-12.5 2-18 2.5s-11.5 1.5-17 2s-10.5 1-15.5 1.5s-10.5 0-15.5 0s-9.5 0-14.5 0s-9.5-.5-14.5-1s-9-1-13.5-1.5s-9.5-1-14-1.5s-9-1-13.5-1.5s-9-1-13.5-1.5s-9-1.5-13.5-1.5s-9-1-13.5-1.5s-9.5-.5-14-.5s-9.5-.5-14-.5s-10 .5-15 .5s-10 1-15 1.5s-11 1.5-16.5 2s-12 2-18 3.5s-13 2-19.5 3.5s-13 3-20 4.5s-13.5 3-20.5 4.5s-14 3.5-21 5s-13.5 3.5-20.5 5.5s-13.5 3.5-20 5s-13 3.5-19.5 5.5s-12.5 3-18 5s-11.5 3-16.5 4.5s-10.5 2.5-15 4s-9 2.5-13 3.5s-7.5 6-10 2.5s-5-19.5-6-23z"/><path class="wash bark-shade" style="--dl:.011;--dh:.6;--dc:.91;--pc:var(--bark)" d="M-29.5 8c1.5-.5 6.5-2 10-2.5s8.5-2.5 13-3.5s9.5-2.5 15-4s11-2.5 16.5-4s12-3.5 18.5-5s12.5-3.5 19-5s13.5-3.5 20.5-5s13.5-3.5 20.5-5s14-3.5 21-5s14-3.5 20.5-4.5s14-3 20.5-4.5s13-2.5 19.5-3.5s12.5-2 18.5-3s11-1.5 16.5-2s10.5-1 16-1.5s10 0 15 0s9.5 0 14.5 0s9.5.5 14 1s9.5 1 14 1.5s9 1 13.5 1.5s9 1 13.5 2s9 1 13.5 1.5s9 1.5 13.5 2s9 1 14 1s9 1 14 1s9.5.5 14.5.5s9.5 0 14.5 0s10.5-.5 15.5-1s11-1 16.5-2s12-1.5 18-2.5s12.5-2 19-3s12.5-2.5 19.5-4s13-2.5 20-4s13-3 20-4.5s13-3 19.5-4.5s13-3 19.5-4.5s12.5-3 18.5-4.5s12-3 17.5-4.5s11-2.5 16-4s9.5-2 14-3.5s8.5-2 12.5-2.5s8-2.5 9.5-2.5s2.5 2.5 1 3.5s-6 1.5-10 2.5s-7.5 2-12 3s-9 2-14 3.5s-10.5 2.5-16 4s-11.5 3-17.5 4.5s-12 3-18.5 4.5s-13 3-19.5 4.5s-13 3.5-19.5 5s-13.5 3-20 4.5s-13.5 3-20 4s-13.5 3-20 4s-12.5 2.5-19 3.5s-12 2-17.5 2.5s-11.5 1.5-17 2.5s-10.5.5-15.5 1s-10.5 0-15.5 0s-9.5 0-14.5 0s-9.5-.5-14-1s-9.5-1-14-1.5s-9.5-1-14-1.5s-9-1-13.5-1.5s-9-1-13.5-1.5s-9-1.5-13.5-1.5s-9-1-13.5-1.5s-9-.5-14-.5s-9.5-.5-14-.5s-10 .5-15 .5s-10 1-15 1.5s-11 1.5-16.5 2s-12 2-18.5 3s-12.5 2.5-19 4s-13.5 3-20 4.5s-14 3-21 4.5s-13.5 3.5-20.5 5s-14 3.5-20.5 5.5s-13.5 3.5-20.5 5s-13 3.5-19 5s-12.5 3.5-18 5s-11.5 3.5-17 4.5s-10 3-15 4.5s-9 2-12.5 3s-8.5 4-10.5 3s-1.5-7.5-2-9z"/><path class="wash bark-lit" style="--dl:.011;--dh:.6;--dc:.91;--pc:var(--bark)" d="M-32.5-4.5c2 0 6.5-1 10.5-2s8-2 12.5-3s9.5-2 15-3.5s11-2.5 16.5-4s12-3 18.5-5s13-3 19.5-4.5s13.5-3.5 20.5-5s13.5-3.5 20.5-5s14-3 21-4.5s14-3 21-4.5s14-3 20.5-4s13.5-2.5 20-3.5s12.5-2 18.5-3s11.5-1.5 17-2s11-1 16.5-1s10.5 0 15.5 0s10 0 15 .5s9.5.5 14 1s9.5 1 14.5 1.5s9 1 13.5 2s9 1 13.5 2s9 1 13.5 2s9 1 13.5 1.5s9 1 13.5 1.5s9 1 13.5 1.5s9.5.5 14.5.5s9.5 0 14.5 0s10-.5 15-1s10.5-1 16-1.5s12-1.5 18-2.5s12.5-2 18.5-3s13-2.5 19.5-3.5s13.5-2.5 20-4s13.5-3 20-4.5s13.5-2.5 20-4s13-3 19-4.5s13-3 19-4.5s11.5-2.5 17-4s11-2.5 16-3.5s10-2.5 14.5-3.5s8.5-2 12-3s8.5-1.5 10-2s2 1 .5 1.5s-6.5 1-10 2s-8 2-12 3s-9.5 2-14.5 3s-10.5 2.5-16 4s-11.5 2.5-17.5 4s-12 3-18.5 4.5s-12.5 3-19 4.5s-13.5 3-20 4.5s-13.5 3-20 4s-13.5 3-20 4s-13 2.5-19.5 4s-12.5 2-19 3s-12 1.5-17.5 2.5s-11 1-16.5 1.5s-10 1-15 1s-10 0-14.5 0s-9.5 0-14.5-.5s-9-.5-13.5-1s-9.5-1-14-1.5s-9-1.5-13.5-2s-9-1-13.5-2s-9-1-13.5-2s-9-1-13.5-1.5s-9.5-1-14-1.5s-9.5-1-14.5-1s-9.5-.5-14.5-.5s-10.5 0-15.5 0s-10.5 1-16 1.5s-11 1-17 2s-12.5 1.5-18.5 2.5s-13 2.5-20 3.5s-13.5 3-20.5 4.5s-13.5 2.5-20.5 4.5s-14 3-21 4.5s-14 3.5-21 5s-13.5 3.5-20 5s-13.5 3.5-19.5 5s-12.5 3-18.5 4.5s-11.5 3-16.5 4s-10.5 3-15 4s-9 2-13 3s-8.5 2.5-10 2s-1-2.5-1-3.5z"/><path class="ink hair bark-tex" d="M279.5-46.5l27 3m148 1l38.5-7m-389.5 23.5l42-9.5m229.5-1l29.5.5m-153.5-12l28.5 1.5m110 9l30.5-1m53.5-6.5l39.5-7.5m-277 5l29.5 0m171 7l37-5.5m-53 9l34-4.5m58.5-12l40-9m-287.5 14l27.5 2.5m-27.5-1.5l27.5 2.5m144 5.5l36.5-5.5m116.5-29.5l-1-3.5m-323.5 26.5l0-3.5m82 15l.5-3.5m27.5 3l0-3.5m-96-7.5l.5-3.5m292.5-11l-1-3.5m36.5-6.5l-.5-3.5m-114 31.5l-1-3.5m-241.5 4l0-3.5m-147.5 24.5l-1-3.5m-122.5 32l-1-3.5m513.5-51l-1-3.5m21.5 3l-.5-3.5m-261.5 6.5l0-3.5m242 4l-.5-3.5m-145 14l.5-3.5m13 7.5l0-3.5m-335.5 34l-1-3.5m211.5-39.5l-.5-3.5m-254 59l-1-3.5m313-53l.5-3.5"/><path class="ink thin" d="M-33-5.5c2-.5 6.5-1.5 10.5-2.5s8-1.5 12.5-2.5s10-2.5 15-4s11-2.5 17-4s12-3 18-4.5s13-3 19.5-5s13.5-3 20.5-4.5s14-3.5 21-5s14-3.5 21-5s14-3 21-4s13.5-3 20.5-4.5s13-2 19.5-3.5s13-1.5 19-2.5s11.5-1.5 17-2s11-1 16.5-1s10.5-.5 15.5 0s10 0 15 .5s9.5.5 14.5 1s9 1 14 1.5s9 1 13.5 2s9 1 13.5 2s9 1 13.5 2s9 1 13.5 1.5s9 1.5 13.5 2s9 .5 14 1s9 .5 14 .5s9.5.5 14.5 0s9.5-.5 15-.5s10.5-1 16-2s11.5-1.5 18-2s12-2 18.5-3.5s13-2 19.5-3.5s13-2.5 20-3.5s13.5-3 20-4.5s13-3 19.5-4.5s13.5-2.5 19.5-4s12.5-3 18.5-4.5s12-3 17.5-4s11-2.5 16-4s10-2 14.5-3s8.5-2 12-3s8.5-1.5 10-2"/><path class="ink thick" d="M-27 17.5c1.5-.5 6-1.5 10-2.5s8-2.5 13-3.5s9.5-2.5 15-4s10.5-3 16.5-4.5s12-3.5 18-5s13-3.5 19.5-5.5s13-3.5 20-5s13.5-3.5 20.5-5.5s14-3 21-5s13.5-3 20.5-4.5s13.5-3 20-4.5s13-2.5 19.5-3.5s12-2.5 18-3.5s11-1.5 16.5-2s10-1 15-1.5s10-.5 15-.5s9.5 0 14 .5s9.5.5 14 .5s9 1 13.5 1.5s9 .5 13.5 1.5s9 1 13.5 1.5s9 1 13.5 1.5s9 1 14 1.5s9 1 13.5 1.5s9.5.5 14.5 1s9.5 0 14.5 0s10 0 15.5 0s10-1 15.5-1.5s11-1 17-2s11.5-1.5 18-2.5s12.5-2.5 18.5-3.5s13-2.5 20-4s13-2.5 20-4s13-3 20-5s13-3 20-4.5s13-3 19-4.5s12.5-3.5 18.5-5s12-2.5 17.5-4s11-3 16-4s9.5-2.5 14-4s8.5-2 12-3s7.5-.5 10-2s5-5 6-6"/></g><g class="gp" data-g=".119" data-o="62.5 -17.5"><path class="ink mid" d="M62.5-17.5c1-4 4.5-17 7-25s5-16 7.5-24s5.5-15 8.5-22s6-14 9.5-21s6.5-13 9.5-19.5s7-12 11-18s7.5-11 11-16.5s8-10.5 12-15s8.5-9.5 13-14s11-10.5 13.5-12.5"/><path class="wash" fill-rule="evenodd" style="--dl:-.02;--dh:-2.4;--dc:.88" d="M87.5-86c-1.5-.5-6-3.5-8-5.5s-3.5-3.5-5.5-5s-3-3-4-4.5s-3-4-4-5.5s-2-4.5-3-6.5s-1.5-3.5-2.5-5.5s-1.5-4-2-6s-1-4.5-1.5-6.5s-1.5-4.5-2-6.5s-1-5-1-7.5s-.5-4.5-.5-7s.5-4.5.5-7s0-5.5.5-8s2-6 2.5-8s-2-4-1-3s4.5 5.5 6.5 8s3 3.5 4.5 5.5s2.5 5 4 7s2.5 4 3.5 5.5s2 3.5 3 5.5s2 3.5 3 5.5s2 4 2.5 6s2 4 2.5 6s1.5 4.5 2 6.5s.5 4 1 6.5s1 4.5 1.5 7s.5 5.5.5 8s0 4.5-.5 7.5s-2 7-2.5 8s0 0 0-.5z"/><path class="wash deep" fill-rule="evenodd" style="--dl:-.02;--dh:-2.4;--dc:.88" d="M82-97.5c-1-1-3.5-2.5-5-4s-2.5-2.5-3-3.5s-2-2.5-2.5-3.5s-1-2.5-1.5-3.5s-1-2-1.5-3s-1.5-2-2-3s-1-2-1-3s0-2 0-3s-1-2-1-3.5s-1-3-1-4s-.5-2.5-.5-4.5s-1-4.5-1.5-6.5s-.5-5-.5-6.5s2-2 2.5-2.5s-.5-.5 0 0s2.5 2.5 3.5 4s2 2 2.5 3.5s2 2.5 2.5 4s1.5 1.5 2 3s1.5 2.5 1.5 4s1 4 1.5 5s.5 1.5 1 2.5s1.5 1 1.5 2s1 2 1.5 3.5s.5 2 1 3.5s.5 2.5.5 4s0 2.5 0 3.5s0 2.5 0 4s-1 5.5-1 6.5s.5.5.5 1z"/><path class="ink thin" d="M68.5-103c-.5-.5-2.5-3.5-4-5.5s-2-3.5-3-5.5s-2-4-2.5-6s-2-4-2.5-6.5s-1-4-1.5-6.5s-1-4-1.5-6.5s-.5-4.5-.5-6.5s0-5-.5-7s.5-5 .5-7.5s0-5 .5-7.5s2-6 2-8s-2-4-1-3.5s5 6 7 8.5s2.5 3.5 4 5.5s3 3.5 4 5.5s2.5 3.5 3.5 5.5s3 4.5 3.5 5.5m9 60.5l0 0"/><path class="ink thick" d="M85.5-88.5c-1-.5-5-2.5-7.5-4s-3.5-3.5-5-5s-4-4.5-4.5-5.5m8-46c.5 1 2 4 3 6s1.5 4 2.5 6s1.5 4 2 6.5s1.5 4 2 6s1 4.5 1.5 7s.5 4 .5 6.5s.5 4.5.5 7s0 4.5-.5 7.5s-2 6.5-2.5 8"/><path class="wash shine" d="M80.5-101.5c-3-3.5-13.5-15-17.5-22.5s-6-21.5-5-23s7.5 8 11.5 15.5s9 25 11 30z"/><path class="ink mid" d="M85.5-88.5c-1-2.5-3.5-9.5-5.5-14.5s-4-9.5-5.5-14s-3.5-10-5-14.5s-3.5-10-5-14.5s-3-10-4.5-15s-3.5-12.5-4.5-15"/><path class="wash" fill-rule="evenodd" style="--dl:-.03;--dh:-2.2;--dc:1.07" d="M86-86.5c1-1 3.5-4 5.5-5.5s4-2.5 6-3.5s3.5-1.5 5.5-2.5s3.5-1.5 5-2s4-1 5.5-1.5s3.5-1 5-1.5s3.5-1 5.5-1.5s3.5 0 5.5-.5s3.5 0 5.5 0s4 0 6 .5s4 0 6 0s3.5 1 6 1s4.5.5 6.5 1s5 2.5 6 3s3-1.5 2-.5s-6.5 3.5-9 5s-3.5 2.5-5 3.5s-3.5 2-5.5 2.5s-3.5 2-5 2.5s-3.5 1.5-5 2s-3.5 1.5-5.5 2s-3.5.5-5.5 1s-3.5.5-5 1s-4 1-6 1s-4 0-6 0s-4 0-6-.5s-4-.5-6-1s-3.5-1-5.5-2s-4.5-3-5.5-3.5s-.5 0-1 0z"/><path class="wash deep" fill-rule="evenodd" style="--dl:-.03;--dh:-2.2;--dc:1.07" d="M99-89c0-.5 1.5-2 2-3s1.5-1 2-2s2-1 3-1.5s2.5-.5 3.5-1s2-.5 3-1s2.5-1 3.5-1.5s2.5-.5 3.5-.5s1.5.5 2.5.5s2 0 3 0s1 .5 1.5 1s.5.5 1.5 1s2.5-.5 4 0s3.5-.5 5 0s1 1.5 1.5 1.5s1.5-.5 1.5 0s-2 1.5-3 2s-1.5 1.5-2.5 2s-1 1-1.5 1.5s-.5 1.5-1 2s-2 1-3.5 1s-3 .5-4.5 1s-2.5 0-3.5.5s-2 .5-3 .5s-2 0-3 0s-2 0-3 0s-2.5 0-3.5-.5s-1.5-.5-2-1s-1-.5-2-1s-3-1.5-4-1.5s-1 0-1 0z"/><path class="ink thin" d="M85.5-88.5c1-1 3.5-4 5-5.5s3.5-2 5-3s3.5-2 5.5-3s3.5-1.5 5-2s4-1.5 5.5-2s3.5-.5 5.5-1s3.5-1 5.5-1s4-.5 5.5-.5s4 0 5.5 0s4 0 6 0s3.5.5 5.5.5s4 .5 6 1s3.5.5 5.5 1.5s5 2 6 2.5m-77 12.5l0 0"/><path class="ink thick" d="M162.5-101c.5-.5 4-1.5 3-1s-5.5 4-8 5.5s-3.5 2-5 3s-3.5 2-5 3s-3.5 1.5-5.5 2.5s-3.5 1.5-5.5 2s-3.5 1-5 1.5s-4 1-5.5 1.5s-4 .5-5.5 1s-4 .5-5.5.5s-4 0-6 0s-3.5-.5-5.5-.5s-4-.5-6-1s-3.5-1-5.5-2s-5.5-3-6.5-3.5"/><path class="wash shine" d="M97-90c4-2 15.5-9 22.5-11s18.5-2 19.5-1s-8 5.5-15 7.5s-22.5 3.5-27 4.5z"/><path class="ink mid" d="M85.5-88.5c2.5-.5 8.5-1.5 13-2s8.5-1 13-2s8.5-1.5 12.5-2s9-1.5 13-2s8.5-1.5 13-2.5s10.5-2 12.5-2"/><path class="wash" fill-rule="evenodd" style="--dl:-.017;--dh:-8.7;--dc:1.11" d="M117-144.5c-1.5-1-5-4.5-7-7s-2.5-5.5-4-8s-2-4.5-3-6.5s-1.5-3.5-2.5-5.5s-1.5-4.5-2-7s-.5-4.5-1-7s-.5-4.5-.5-6.5s0-5 0-7.5s.5-4.5 1-7s0-5 .5-8s1-5.5 1.5-8s1.5-5 2.5-7.5s2-4.5 3.5-7s3.5-5.5 4.5-7.5s-1-4.5 0-3s3 8 4 10.5s2 4 3 6s2 5 2.5 7s1 5.5 2 7.5s1 4.5 1.5 7s1 4 1.5 6.5s1 4.5 1 6.5s.5 5 1 7s.5 5.5.5 7.5s-.5 5-1 7.5s-.5 4.5-1 7s-1 5-1.5 8s-1 5.5-2 8s-4.5 6-5 7.5s0-.5 0-.5z"/><path class="wash deep" fill-rule="evenodd" style="--dl:-.017;--dh:-8.7;--dc:1.11" d="M114-159c-.5-1-2.5-3-4-4s-1.5-2.5-2-4s-2-2-2.5-3.5s-1-3-1-4.5s.5-3 0-4s0-2.5 0-3.5s-.5-2.5-.5-3.5s0-2 0-3.5s0-2.5 0-4s0-4 .5-5s.5-2 1-3s1-1.5 1.5-3.5s.5-5 1-7.5s2-5.5 2.5-7.5s-.5-3 0-2s2 4 2.5 5.5s1.5 3.5 2 5.5s.5 5.5 1 7s.5 3 1 4.5s1 1 1 2.5s.5 3 .5 4.5s0 3 0 4.5s0 2 0 3.5s0 2.5 0 3.5s-.5 2-.5 3.5s.5 2.5.5 4s.5 3.5 0 5.5s-1 2.5-1.5 4s-2.5 3-3 4s0 .5 0 1z"/><path class="ink thin" d="M108.5-153c-.5-1-3-4.5-4-6.5s-2-4.5-3-6.5s-2-5-2.5-7s-1.5-4.5-2-7s-.5-4.5-1-7s-.5-4.5-.5-7s0-4.5 0-7s.5-5 1-7.5s.5-4.5 1-7s1-5 2-7.5s1-5 2-7.5s1.5-5 3-7.5s3.5-6 4.5-8s0-3 0-4m6.5 103l0 0"/><path class="ink thick" d="M115.5-147l-7-6m.5-97c.5 2 3 8 4.5 10.5s2 4.5 2.5 7s2 4.5 2.5 6.5s1.5 4.5 2.5 7s1 4.5 1.5 7s1 4.5 1.5 7s.5 4.5 1 7s0 4.5.5 7s0 4.5 0 7s-.5 5-.5 7s-.5 5-1 7.5s-1 5-1.5 7.5s-1 5-2.5 7.5s-4 6.5-4.5 7.5"/><path class="wash shine" d="M113.5-161.5c-2-5-10-19.5-12-28.5s0-24 1.5-25s5.5 10 7 19s3 28.5 3.5 34.5z"/><path class="ink mid" d="M115.5-147c-.5-2.5-1.5-10.5-2.5-16s-1-11-1.5-16.5s-1-11-1.5-16.5s-.5-11-.5-16.5s-.5-11-.5-16.5s0-14 0-17"/><path class="wash" fill-rule="evenodd" style="--dl:.021;--dh:-5.3;--dc:.99" d="M115.5-145c1-1 5-4 7.5-5.5s5-2 7.5-3s3.5-1.5 6-2s4-1 6.5-1.5s4.5 0 6.5-.5s4.5 0 6.5 0s4.5.5 6.5.5s4 .5 6 1s4.5 1 7 1s5 1 7 2s4.5 1.5 7 2.5s4 2 6 3s5 2.5 7 4s5.5 4 7 5s4.5 0 3.5.5s-7 2-10 3s-4.5 1-7 1.5s-5 1-7.5 1s-5 .5-7 1s-4 .5-6 .5s-4.5.5-6.5.5s-4 0-6 0s-4.5 0-7 0s-4-.5-6.5-1s-4-1-6-1.5s-4.5-.5-7-1.5s-5.5-1-7.5-2s-5-1.5-7-3s-6-4.5-7-5.5s.5 0 .5 0z"/><path class="wash deep" fill-rule="evenodd" style="--dl:.021;--dh:-5.3;--dc:.99" d="M131.5-145c.5-.5 2-2 3-3s1.5-1.5 2-2s2-1.5 3.5-2s3-.5 4.5-.5s2.5.5 3.5 0s3 0 4 0s3 0 4 0s2 .5 3.5 1s2.5.5 3.5 1s2 .5 3 1s0 1.5.5 2s1 1 2.5 1.5s4.5 1 6 1.5s3.5 2.5 4.5 3s2.5 0 2 0s-2.5 1.5-4 2s-2.5.5-3.5 1s-3 0-4 .5s-1 1-1.5 1.5s-1.5 1-3 1s-3.5 0-5-.5s-3-.5-4.5-.5s-2.5 0-4-.5s-2.5-.5-3.5-1s-2.5-.5-3.5-1s-2.5 0-3.5-.5s-2.5-.5-3.5-1s-1-1.5-2-2s-2.5-2-3.5-2.5s-1 0-1 0z"/><path class="ink thin" d="M115.5-147c1-1 4-4 6.5-5.5s4-2 6.5-3s4-1.5 6.5-2s4-1 6.5-1s4-1 6.5-1s4.5 0 6.5 0s4.5 0 6.5.5s4.5.5 6.5 1s4.5.5 6.5 1.5s4.5 1 6.5 2s4.5 1.5 7 2.5s4 2 6.5 3s4 2 6.5 3.5s5 4 6.5 5s3 .5 3.5.5m-95-7l0 0"/><path class="ink thick" d="M210.5-140c-1.5.5-7 2-10 3s-4.5 1-6.5 1.5s-4.5 1-6.5 1.5s-4.5 1-6.5 1s-4.5.5-6.5 1s-4.5 0-6.5 0s-4.5 0-6.5 0s-4.5 0-6.5-.5s-4.5-.5-6.5-.5s-4.5-1-7-1.5s-4-1-6.5-1.5s-4.5-1.5-6.5-2.5s-4.5-1.5-6.5-3s-5.5-4.5-6.5-5.5"/><path class="wash shine" d="M129-147c4.5-1 19-6.5 27.5-7s22 2.5 23 4s-10 4-18.5 4.5s-26.5-1-32-1.5z"/><path class="ink mid" d="M115.5-147c2.5 0 10 0 15 0s10.5.5 15.5.5s10 .5 15 1s10.5 1 15.5 1.5s10 1 15 1.5s13 2 15.5 2"/><path class="wash" fill-rule="evenodd" style="--dl:-.043;--dh:6.6;--dc:.99" d="M140-175.5c-1-1.5-4-5-5.5-7.5s-2-4.5-3-6.5s-1.5-5-2-7.5s-1-5-1-7.5s-.5-5-.5-7s-.5-4.5-.5-6.5s0-4.5 0-6.5s.5-4.5.5-6.5s.5-4.5 1-7s1-4.5 1.5-6.5s1.5-4 2.5-6.5s1.5-4.5 2.5-7.5s1.5-5.5 3-8s3.5-5 4.5-7s-.5-5 0-3.5s3 8 4 11s2 5.5 2.5 8s1 5 2 7.5s1 4 1.5 6s1 4.5 1.5 7s0 4.5 0 7s.5 4.5.5 6.5s0 4.5-.5 6.5s0 4.5-.5 6.5s-.5 4.5-1 7s-.5 5.5-1.5 8s-1.5 4.5-2 7s-2 3.5-3.5 6s-5 6-6 7s0 .5 0 .5z"/><path class="wash deep" fill-rule="evenodd" style="--dl:-.043;--dh:6.6;--dc:.99" d="M139.5-195c-.5-.5-2-2-2.5-2.5s-1.5-1-2-2s-1-2.5-1.5-4s0-2.5 0-4s-.5-2-1-3.5s-.5-2.5-1-4s0-2.5 0-4s0-3 0-5s.5-3.5 1-4.5s1-1 1.5-2s1-.5 1.5-1.5s1-3 1.5-4.5s1-2.5 1.5-3s2-1.5 2.5-2s0-3.5 0-2.5s1.5 4.5 2 6.5s.5 4 1 5.5s.5 1 1 1.5s1.5 0 2 .5s.5 2 1 3.5s0 2.5.5 4s.5 2.5.5 3.5s-.5 3-.5 4.5s-.5 2.5-1 4s0 2.5 0 4s-.5 3-1 4s-1.5 2-2 3s-1.5 1.5-2 2.5s-2.5 2.5-3 3s0-1 0-1z"/><path class="ink thin" d="M138.5-178.5c-.5-1.5-4-5-5.5-7s-2-4.5-2.5-7s-2-4.5-2.5-6.5s-1-4.5-1.5-7s-.5-4.5-.5-7s-.5-4.5-.5-6.5s0-4.5 0-7s.5-4.5 1-6.5s.5-4.5 1-7s1-4.5 1.5-6.5s1.5-4.5 2.5-7s1.5-4.5 2.5-6.5s1.5-4.5 3-6.5s3.5-5 4.5-7s0-3 0-3.5m-3 98.5l0 0"/><path class="ink thick" d="M141.5-277c1 1.5 3 7.5 4 10.5s2 4.5 2.5 7s1.5 4.5 2 6.5s1.5 4.5 1.5 7s1 4.5 1.5 6.5s.5 4.5.5 7s.5 4.5.5 6.5s0 4.5 0 7s-.5 4.5-1 6.5s-.5 4.5-1 7s-1 4.5-2 6.5s-1.5 4.5-2.5 7s-1.5 4.5-3 6.5s-5 5.5-6 7"/><path class="wash shine" d="M139-193c-1.5-4.5-7-20-8-28.5s1.5-23 3-23.5s5 10.5 6 19s-1 27.5-1 33z"/><path class="ink mid" d="M138.5-178.5c0-3 .5-10.5.5-16s0-10.5.5-16s0-10.5.5-15.5s0-10.5.5-16s0-10.5.5-15.5s.5-13.5.5-16"/><path class="wash" fill-rule="evenodd" style="--dl:.033;--dh:3.9;--dc:.92" d="M139.5-177c1.5-1 6-4 9-5s5-2 8-2.5s6-.5 8.5-.5s6 0 8.5 0s5.5.5 8 1s5.5 1.5 8 2s5 1.5 7.5 2.5s5 1 7.5 2s5 2 7.5 3s4.5 3 7 4s5 3 7.5 5s5 3 7.5 5s4.5 4 7 6s5 6.5 7.5 8.5s7 1.5 6 2s-10 0-14 0s-7 0-10 0s-5.5 0-8 0s-5.5-.5-8-.5s-5.5-1-8-1s-5-1-7.5-1s-5.5-1-8-1.5s-5-2-7-2.5s-5-2-7.5-2.5s-5-2-7.5-3s-5.5-2-8-3.5s-5-3-8-4.5s-5.5-3-8-5s-6-7-6.5-8.5s1 .5 1 .5z"/><path class="wash deep" fill-rule="evenodd" style="--dl:.033;--dh:3.9;--dc:.92" d="M154.5-174c.5-.5 2.5-2.5 4.5-3.5s3-1 5-1s4.5.5 6 .5s3 0 4.5 0s3 0 4.5 0s3 .5 4.5 1s2.5 1 3.5 2s2.5 1 3.5 1.5s2 1 3 2s1 1 2 2s3.5 1 5.5 2s6 2 7.5 3.5s3 2 4 3s2 3.5 3.5 4.5s4.5 1 4 1.5s-5.5 0-7.5 0s-3.5 0-4.5.5s-1.5 1-2.5 1s-3.5 0-5.5-.5s-5-1.5-7-2s-4-1.5-5.5-1.5s-2.5-.5-4-1s-2.5-1-4-1.5s-2-.5-3.5-1s-3-.5-4-1s-2.5-1.5-3.5-2.5s-1.5-1.5-3-2s-3.5-1.5-5-2.5s-4.5-4-5.5-5s-.5 0-.5 0z"/><path class="ink thin" d="M138.5-178.5c1.5-1 6-4 9-5s6-1.5 8.5-2s5.5-1 8-1s5.5 0 8.5 0s5 0 7.5.5s5.5 1 8 1.5s5 1.5 7.5 2s5 2 7.5 3s5 2 7.5 3.5s5 2.5 7.5 4s4.5 3 7 4.5s5 3.5 7 5.5s5 3.5 7 6s5 6 6.5 7.5s3.5 1.5 4.5 1.5m-111.5-31.5l0 0"/><path class="ink thick" d="M250-147c-2 .5-9.5.5-12.5.5s-5.5.5-8.5.5s-5 0-8 0s-5 0-8-.5s-5 0-8-.5s-5-1-7.5-1.5s-5-1-8-1.5s-5-1-7.5-2s-5-1.5-7.5-2.5s-5-2-7.5-3s-5-2.5-7.5-4s-4.5-2.5-7-4s-5-3-7-5.5s-5.5-6.5-7-7.5"/><path class="wash shine" d="M155-175.5c5.5-.5 24-3.5 34-2s25.5 8.5 26.5 10.5s-13 2.5-23 1s-31-8-37.5-9.5z"/><path class="ink mid" d="M138.5-178.5c3 .5 12.5 2 18.5 3.5s12 2.5 18 4s11.5 3 17.5 5s12 3.5 18 5s11.5 4 17.5 6s14.5 5.5 17.5 6.5"/><path class="wash" fill-rule="evenodd" style="--dl:-.008;--dh:-2.5;--dc:.9" d="M168-205.5c0-1.5-1-7-1-10.5s1-6 2-9s2-6 3-8.5s2-5.5 3.5-8s3-5.5 4.5-8s4-4.5 5.5-7s4-4.5 6-7s4-5 6-7s5-4.5 7.5-6.5s5.5-3.5 8-5s5.5-3.5 8.5-5s5.5-3 8.5-4s5-2 8.5-3s9-2.5 11.5-3.5s4.5-6 4-4s-5 10.5-6.5 14s-2.5 6-4 9s-2 5.5-3.5 8s-2.5 5-4 8s-2.5 5-4 7.5s-3 5-4.5 7.5s-3.5 5-5.5 7.5s-4 4.5-6.5 6.5s-4 4.5-6.5 6.5s-4.5 4.5-7 6.5s-5 4-7.5 5.5s-5.5 4-8.5 5.5s-5.5 3.5-9 4.5s-8.5 1-10 1s1-1 1-1.5z"/><path class="wash deep" fill-rule="evenodd" style="--dl:-.008;--dh:-2.5;--dc:.9" d="M176-217c0-1-1.5-4-1.5-6s2-5 3-7s2-3.5 2.5-5.5s1.5-3 2.5-4.5s1.5-3 2.5-4.5s2.5-2.5 3.5-4s2-3 3-4s2.5-2 3.5-2.5s2 .5 3 0s2.5-1.5 4-3s3.5-3.5 5-5s3-2 5-3s4-3 6.5-4s6.5-3 8-4s1-1.5.5-.5s-3 6.5-3.5 8.5s1 1.5 1 2.5s-.5 2.5-1.5 4s-3 4.5-4 6.5s-2.5 3.5-4 5s-2.5 3-4 4.5s-3.5 3-4.5 4s-2 2.5-3 3.5s-1.5 2.5-2.5 3.5s-2.5 2.5-3.5 3s-2.5 1.5-4 2.5s-2.5 2-4 3s-3 2-5 3s-5 1-6.5 1.5s-1.5 2-2 2.5z"/><path class="ink thin" d="M165-205c0-2-1-8-.5-11.5s1.5-6.5 2-9.5s2.5-6 3.5-9s2.5-5.5 4-8.5s3-5 4.5-7.5s3.5-5 5.5-7.5s4-4.5 6-7s4.5-4 6.5-6s5-4 7.5-6s5-4 7.5-5.5s5.5-3.5 8-5s6-3.5 9-5s6-3 9.5-4s8.5-2 11-3s3-3 3.5-3.5m-87.5 98.5l0 0"/><path class="ink thick" d="M252.5-303.5c-1 2-4 9.5-5.5 13.5s-2 6-3.5 8.5s-2.5 6-4 8.5s-2.5 5.5-4 8s-3 5.5-5 8s-3 5-5 7.5s-3.5 5-5.5 7s-4 4.5-6 7s-4 4.5-6.5 6.5s-4.5 4-7 6s-4.5 4-7 5.5s-5.5 4-8.5 5.5s-5.5 3.5-8.5 4.5s-10 2-11.5 2.5"/><path class="wash shine" d="M176.5-220c2.5-6 9-26.5 15.5-36s21.5-22 23.5-21.5s-4 14-10.5 23.5s-23.5 28.5-28.5 34z"/><path class="ink mid" d="M165-205c2-2.5 8.5-11 13-16.5s8.5-11 13-16.5s9.5-10.5 14-16s9.5-10.5 14.5-15.5s9.5-10.5 14.5-15.5s12.5-12.5 15-15"/><path class="wash" fill-rule="evenodd" style="--dl:-.039;--dh:-5.6;--dc:1.06" d="M167-203c1-1.5 4-6 6.5-8.5s5-3.5 7-5s4.5-3 7-4.5s4.5-2.5 7-3.5s5.5-2 8-2.5s5-1.5 7.5-2s5-1.5 7.5-2s5.5-1 8-1.5s5.5-.5 8.5-.5s5.5-.5 8.5-.5s6 .5 8.5.5s5 1 8 1.5s5.5 1 8.5 2s8 3 10 3s5.5-1.5 4-.5s-9 5.5-12.5 7.5s-4.5 3.5-7.5 5s-5 2.5-7.5 4s-5.5 2-7.5 3.5s-4.5 2-7 3s-4.5 2.5-7 3s-5 1.5-7.5 2.5s-5.5 1-8 1.5s-5.5 1-8 1.5s-5.5 0-8.5.5s-5.5 0-8.5 0s-6.5 0-9.5-.5s-6-1-9-2s-6.5-4.5-7.5-5.5s.5 0 1 0z"/><path class="wash deep" fill-rule="evenodd" style="--dl:-.039;--dh:-5.6;--dc:1.06" d="M182-207c.5-1 2-3.5 3.5-4.5s3-2 4.5-3s2.5-2 4-2.5s2.5-1.5 4-2s3-.5 4.5-.5s2 0 3.5-.5s2.5-1 4-1.5s3-1 4.5-1.5s3 0 5-.5s4-.5 6-.5s4-.5 5.5 0s1.5 1 3 1.5s3.5 0 6 .5s7 1 9 1s3.5-1 2-.5s-7 3.5-9.5 5s-3 2-5 3s-5 1.5-7 2s-4.5 1.5-5.5 2s-1.5 1-2.5 1.5s-1.5 1.5-3 2s-3 .5-4.5.5s-3 .5-4 1s-2.5.5-4 1s-2.5 0-4.5.5s-2.5 0-4.5 0s-4.5 1-6.5 1s-4-.5-5.5-1.5s-3-3-3.5-3.5s0 0 .5 0z"/><path class="ink thin" d="M165-205c1-1 4-6 6-8s5-4 7-5.5s5-3 7.5-4.5s5-2.5 7.5-3.5s5-2 7.5-2.5s5-2 7.5-2.5s5.5-1 8-1.5s5.5-1 8-1s5.5-.5 8-.5s5.5 0 8.5 0s5.5 0 8.5.5s5.5.5 8 1s6 1 9 2s6.5 3 9 3s3.5-.5 4.5-.5m-114.5 23.5l0 0"/><path class="ink thick" d="M279.5-228.5c-2 1-8.5 5-11.5 7s-4.5 3.5-7 5s-5 3-7.5 4s-4.5 3-7 4s-5 2-7.5 3s-5.5 2-8 3s-5 1.5-7.5 2s-5.5 1.5-8 2s-5 .5-8 1s-5.5 0-8 .5s-5.5 0-8.5-.5s-5.5-.5-8-1s-6-.5-9-1.5s-7.5-4-9-5"/><path class="wash shine" d="M181.5-208.5c5-3 20.5-13.5 30.5-17s27-4.5 28-3s-10.5 8.5-20.5 11.5s-32 7-38 8.5z"/><path class="ink mid" d="M165-205c3-.5 12-2.5 18-4s12.5-2.5 18.5-4s12-2.5 18-4s12.5-2.5 18.5-3.5s12.5-2.5 18.5-3.5s15.5-3 18.5-4"/></g><g class="gp" data-g=".251" data-o="235.5 -51"><path class="ink mid" d="M235.5-51c3 2 12 9 18 14s11.5 10 17 15.5s11.5 11 17 17s11 12 16.5 18.5s11 13 16 20s10.5 14 15.5 21.5s10.5 14.5 15.5 22.5s10 16 15 24.5s9.5 17 14 25.5s12 23 14.5 27.5"/><path class="wash" fill-rule="evenodd" style="--dl:.001;--dh:-4.4;--dc:1.01" d="M288-3c1-.5 4.5-3.5 7-4.5s5-1.5 7.5-2s5-1 7-1s4-1 6-1s5-.5 7 0s4.5.5 7 1s4 .5 6.5 1s4 1.5 6 2s4 1.5 6 2.5s4 1.5 6 2.5s4.5 2 7 3s3.5 2 5.5 3.5s4 2.5 6 4s4.5 4.5 6.5 6s4.5.5 3.5.5s-7.5 1.5-10 2s-3.5 1-5.5 1.5s-4.5 1-7 1s-5 0-7.5 0s-4.5 0-7 0s-4 0-6.5-.5s-4.5-.5-6.5-1s-4-.5-6.5-1s-4-1-6.5-1.5s-3.5-1.5-5.5-2s-3.5-2-5.5-3s-4-1.5-6.5-3s-4.5-2-6.5-3.5s-5.5-5-6.5-6s-1-.5-1-.5z"/><path class="wash deep" fill-rule="evenodd" style="--dl:.001;--dh:-4.4;--dc:1.01" d="M302.5-1c1 0 4.5-1 6-1.5s2-1 3-1s2-1 3-1s2-.5 3-.5s2.5-.5 3.5-.5s2.5-.5 4-.5s2.5.5 3.5 1s2 1 3 1.5s3.5 0 5 .5s3.5 1 5 1.5s1.5 1.5 2.5 2s2.5 1.5 3.5 2.5s1.5 1.5 1.5 2s-1 2-1 2.5s1.5 0 1 0s-1 1.5-2.5 1.5s-2 .5-3.5 1s-3-.5-4.5-.5s-1.5.5-2.5.5s-2 .5-3.5.5s-2-.5-3 0s-1.5.5-2.5.5s-2.5.5-3.5 0s-3-1-4.5-1.5s-2.5-1-3.5-1.5s-2.5-1-3.5-1.5s-2-1-3.5-2s-1.5-1-3-2s-3-3-3.5-3.5s.5 0 .5 0z"/><path class="ink thin" d="M287.5-4.5c1.5-1 5-3.5 7-4.5s5-1.5 7-2s4.5-1 7-1.5s4-.5 6.5-.5s4.5 0 6.5 0s4.5.5 6.5.5s4.5 1 6.5 1.5s4 1 6.5 1.5s4 1.5 6 2s4.5 2 6.5 3s4 2 6 3s4 2.5 6 3.5s4.5 3 6.5 4.5s4 4.5 5.5 5.5s3 1 4 1m-94-17.5l0 0"/><path class="ink thick" d="M381.5 13c-2 0-8 1-10.5 1.5s-4.5 1-7 1.5s-4.5.5-6.5.5s-4.5.5-6.5.5s-4.5 0-7 0s-4 0-6.5-.5s-4 0-6.5-.5s-4-.5-6.5-1s-4-1-6-2s-4.5-1-6.5-2s-4-1.5-6.5-2.5s-4-2-6-3s-4-2-6-4s-5-5-6-6"/><path class="wash shine" d="M301-2.5c5-1 20-4.5 28.5-4s21.5 5 22 6.5s-10.5 3-18.5 2.5s-26.5-4.5-32-5z"/><path class="ink mid" d="M287.5-4.5c2.5.5 10 1.5 15 2s10 1.5 15.5 2.5s10 1.5 15 2.5s10 2 15 3s10 2 15 3s12 3 14.5 3.5"/><path class="wash" fill-rule="evenodd" style="--dl:-.012;--dh:10.2;--dc:.87" d="M288.5-1.5c0 1 1.5 5 2 7.5s.5 3.5.5 5.5s-.5 4.5-1 6.5s-1 4-1.5 6s-1 4-2 6s-1 3.5-2 5s-1.5 4-2.5 5.5s-2 4-3 5.5s-2 4-3.5 5.5s-3 3-4 4.5s-3 3-4.5 4.5s-3.5 3.5-5 4.5s-3.5 3-5.5 4.5s-5 2-6.5 3s-1.5 4.5-1.5 3.5s1-7.5 1.5-10.5s1-5 1.5-7s.5-4 1-6s.5-3.5 1-5.5s1-3.5 1.5-5.5s1-4 1.5-5.5s1.5-4 2.5-6s1.5-3.5 3-5s2-3.5 3-5.5s2-4 3.5-5.5s2.5-4 4-5.5s3-3 4.5-4s3-3 5-4.5s6-2.5 7-2.5s-.5 1-.5 1z"/><path class="wash deep" fill-rule="evenodd" style="--dl:-.012;--dh:10.2;--dc:.87" d="M281 11.5c.5.5 1 2 1.5 3s1 1.5 1 2.5s0 2 0 3s-.5 2.5-.5 3.5s-.5 2.5-1 4s-1 2-1.5 3s-1.5 1.5-2 2.5s-1 2.5-1.5 3.5s-1.5 2.5-2 3.5s-1.5 1-2.5 1.5s-1.5 1-2 1.5s-1.5 1-2.5 1s-.5 0-1.5 0s-2.5 1-3.5 2.5s-2 5-2.5 5s0-3.5.5-5s.5-3 .5-4s0-1.5 0-2.5s.5-2 .5-3s.5-2 1-3s0-2 0-3s.5-2 1-3s2-2.5 3-4s1.5-1.5 2.5-2.5s1-2 1.5-3s1.5-1.5 2.5-2s1.5-1.5 2-2.5s2-2 3-2.5s3-1.5 3.5-1.5s-.5 1-1 1.5z"/><path class="ink thin" d="M247 74c.5-2 1-7.5 1.5-10s.5-4 .5-6.5s.5-4 1-6s1-4 1.5-6s1-4 1.5-6s1.5-3.5 2.5-5.5s1.5-4 2-5.5s2-3.5 3-5.5s2-3.5 3-5s2.5-3.5 3.5-5s2.5-3.5 4-5s3-3 4.5-4.5s3-3.5 5-4.5s6-3 7-3.5s0 0 0 0"/><path class="ink thick" d="M287.5-4.5c.5 1.5 2 5 2 7.5s0 4.5 0 6.5s-.5 4.5-.5 6.5s-1 4-1.5 6s-1 4-2 6s-1 3.5-2 5.5s-2 3.5-3 5.5s-2 3.5-3 5s-2.5 3.5-3.5 5s-3 3-4 5s-3 3-4.5 4.5s-3 3-5 4.5s-3 3-5 4s-5.5 2.5-6.5 4s-1.5 2.5-2 3"/><path class="wash shine" d="M282.5 7c-1 4.5-2 18.5-4.5 26s-10 18-11.5 18s0-10 2.5-17.5s11-22 13.5-26.5z"/><path class="ink mid" d="M287.5-4.5c-1 2-4 8.5-6 13s-4 8.5-6 12.5s-4 8.5-6.5 12.5s-4 8.5-6.5 12.5s-4.5 8.5-6.5 12.5s-6 10.5-7 12.5"/><path class="wash" fill-rule="evenodd" style="--dl:-.012;--dh:-2.8" d="M335.5 57c1.5-1 6-3.5 9-4.5s5.5-1 8-1.5s4.5-1 7-1s4.5-.5 6.5-.5s4.5 0 6.5 0s4.5 0 6.5 0s4.5.5 6.5 1s4.5 1.5 6.5 2s4.5 1 6.5 1.5s5 1.5 7 2s4.5 2 7 3s4.5 2 6.5 3.5s4.5 2.5 6.5 4s4 4 5 5s4 0 3 .5s-7.5 2-10.5 2.5s-4.5 1.5-7 2s-5 .5-7.5 1s-5 .5-7.5.5s-4.5.5-6.5.5s-4.5-.5-6.5-.5s-4.5 0-6.5 0s-4.5-.5-7-.5s-4.5-1-6.5-1.5s-4-1.5-6.5-2.5s-4.5-1.5-6.5-2.5s-4.5-2-7-3.5s-4-2-6-4s-5.5-5.5-6.5-6.5s0 0 0 0z"/><path class="wash deep" fill-rule="evenodd" style="--dl:-.012;--dh:-2.8" d="M350 59c.5-.5 1.5-2.5 3-3s2.5-1.5 4-1.5s4 0 5.5 0s2.5 0 4 0s2.5 0 4 0s2 0 3.5.5s2 .5 3.5.5s2.5.5 3.5 1s1.5 1 2 1.5s.5 1 1.5 1.5s3 .5 4.5 1s4.5 1 6 1.5s2.5 1.5 4 2s3.5 2.5 5 3.5s4 0 3.5.5s-6.5.5-8.5 1s-3 .5-4 1s-1 1-2 1.5s-2.5.5-4 .5s-4-.5-6-.5s-3-.5-4.5-.5s-2.5-.5-4-1s-2.5-1-3.5-1s-2-.5-3-.5s-2.5 0-3.5-.5s-2-1-3-1.5s-2-1.5-3-2s-2.5-1-4-2s-3-3-4-3.5s-.5 0-.5 0z"/><path class="ink thin" d="M335.5 55.5c1.5-1 5.5-3.5 7.5-4.5s5-1.5 7.5-2s4.5-1 7-1.5s4.5-.5 6.5-.5s5 0 7 0s4.5.5 6.5.5s4.5 1 7 1s4 1 6.5 1.5s4 1.5 6.5 2s4 1.5 6.5 2.5s4 2 6 3s4.5 2 6.5 3s4 2.5 6 4s5 4.5 6 5m-93-14l0 0"/><path class="ink thick" d="M428.5 69.5c.5.5 5 0 4 .5s-8 2-11 3s-5 1-7.5 1.5s-4.5 1-7 1.5s-4.5.5-6.5.5s-5 .5-7 .5s-4.5 0-7 0s-4.5-.5-6.5-.5s-4.5-.5-6.5-1s-4.5-1-6.5-1.5s-4.5-1.5-6.5-2s-4.5-2-6.5-3s-4.5-2-6.5-3s-4-2.5-6-4s-5-5.5-6-6.5"/><path class="wash shine" d="M349.5 57.5c5-.5 20.5-4.5 29.5-4s22 4.5 22.5 6s-10.5 3.5-19.5 3s-27-4-32.5-5z"/><path class="ink mid" d="M335.5 55.5c3 0 10.5 1.5 15.5 2s10.5 2 15.5 2.5s10.5 1.5 15.5 2.5s10.5 1.5 15.5 2.5s10.5 1.5 15.5 2.5s13 2 15.5 2"/><path class="wash" fill-rule="evenodd" style="--dl:-.014;--dh:7.7;--dc:1.1" d="M338 56c0 1.5 1 6 1 9s0 4.5-.5 7s-1 5-2 7.5s-2 5-3 7.5s-2 4-3 6s-1.5 4-2.5 6s-2.5 3.5-3.5 5.5s-2.5 3.5-4 5.5s-3 3.5-4.5 5s-3 3.5-4.5 5s-3.5 2.5-5 4.5s-4 3.5-6 5.5s-4 4-6.5 5s-6 2.5-7.5 3.5s-2 5-2 3.5s1.5-8.5 2-11.5s1.5-5.5 2-8s1-5 1.5-7s1-4.5 2-6.5s1.5-4.5 2.5-6.5s2-4.5 3-6.5s2-4 3.5-5.5s2-4 3.5-5.5s2.5-3.5 3.5-5.5s3-4 4.5-5.5s3-4 5-6s3.5-3 5.5-4s3.5-3 6-4s7-3 8.5-4s.5 0 .5 0z"/><path class="wash deep" fill-rule="evenodd" style="--dl:-.014;--dh:7.7;--dc:1.1" d="M329 68.5c.5.5 2 2.5 2 4s-.5 3-1 5s-1 3-1.5 4.5s-1 2.5-1.5 3.5s-1.5 2.5-2 3.5s-1.5 1.5-2 2.5s-1 2.5-1.5 3.5s-1.5 2.5-2 3.5s-1.5.5-2.5 1s-1 1-2 2s-2 3-3 4s-2 2-3.5 3.5s-2.5 2.5-4 4s-5 4-6.5 5.5s-1 2.5-.5 1s2.5-7 3-9.5s.5-2.5.5-3.5s0-2.5.5-3.5s1-3.5 2-4.5s1-3 1.5-4s1-2.5 2-3.5s2-2.5 3-3.5s1.5-2 2-3s.5-1.5 1-2.5s1-2.5 2-3s1.5-2 2.5-3s2-2 3-3s2.5-2 3.5-2.5s3.5-.5 4.5-1s.5-1 .5-1z"/><path class="ink thin" d="M284 139c0-2 1.5-8.5 2-11.5s.5-4.5 1-7s1-4.5 2-7s1-4.5 2-6.5s1.5-4.5 2-6.5s2-4 3-6s2-4 3-6s2.5-4 3.5-6s2.5-3.5 4-5.5s3-3.5 4.5-5s3-3.5 5-5s3.5-3 5.5-4.5s3.5-3 6-4.5s7-2.5 8-2.5s0 0 0 0"/><path class="ink thick" d="M335.5 55.5c.5 1 1.5 5.5 1.5 8.5s-.5 5-1 7.5s-1 4.5-1.5 6.5s-1 4.5-2 7s-1.5 4-2.5 6s-2 4-3.5 6s-2 4-3.5 6s-2.5 3.5-4 5.5s-2.5 3.5-4 5s-3.5 3.5-5 5s-3.5 3.5-5 5s-4 3-6 4.5s-3.5 3-6 4s-5.5 2.5-7 3.5s-2 2.5-2 3.5"/><path class="wash shine" d="M328.5 67.5c-1.5 4.5-4 20.5-7.5 28.5s-13 19-14.5 19s1-11.5 4.5-19.5s14.5-23.5 17.5-28z"/><path class="ink mid" d="M335.5 55.5c-1 2-5 8.5-8 13s-5.5 9-8 13.5s-5.5 9-8.5 13.5s-5.5 9-8 13.5s-6 9-8.5 13.5s-7 11-8.5 13"/><path class="wash" fill-rule="evenodd" style="--dl:-.02;--dh:-7.9;--dc:.9" d="M370 105c1.5-1 7-4 10-5s5.5-2 8.5-2.5s6-1 8.5-1s6-.5 9-.5s6 0 9 0s6 1 9 1.5s6 1.5 9 2.5s6 1 9 2s6 2 9 3s5.5 2.5 8.5 4s5 3 8 4.5s5 3.5 7.5 5s4 3.5 6 5.5s5 5.5 7 7s8 .5 6.5 1.5s-10.5 2-15 2.5s-7 1-10 1.5s-6 1-9 1s-6 .5-9 1s-6 0-9 0s-6 0-9 0s-6.5-.5-9.5-1s-6-1.5-9-2.5s-5.5-2-8.5-3s-5.5-2-8.5-3.5s-5.5-2.5-8-4s-5-3-7.5-5s-6-3.5-8.5-6s-5.5-8-6.5-9s2 0 2.5.5z"/><path class="wash deep" fill-rule="evenodd" style="--dl:-.02;--dh:-7.9;--dc:.9" d="M384 108c1-.5 3.5-3 5-3.5s3.5-1.5 5.5-1.5s5 0 7 .5s4 1 6 1s3 0 4.5.5s3 .5 4.5.5s2.5 1 4 1s3.5.5 5.5 1s3 1 4 2s1 1.5 2.5 2s3 1.5 5.5 2s6.5 2 9 3s4 2 6 3.5s4 3.5 5.5 4.5s6 .5 4.5 1s-9 .5-12.5.5s-6.5 0-8.5 0s-2 1-3.5 1.5s-3 .5-5 .5s-5-1-7-1s-4-1-5.5-1.5s-3-.5-4.5-1s-3.5-1-4.5-1.5s-2.5-.5-4-.5s-3.5 0-5-.5s-3.5-1.5-5-2.5s-2.5-1.5-4-2.5s-3.5-2-5-3.5s-4.5-4.5-5-5.5s0 0 0 0z"/><path class="ink thin" d="M366 102.5c1.5-1 7-4 10.5-5.5s6.5-1.5 9.5-2s6.5-.5 9.5-.5s6-.5 9-.5s6.5.5 9.5 1s6 .5 9 1s5.5 1.5 8.5 2s6 1.5 8.5 2.5s6 2 8.5 3.5s6 2 8.5 3.5s5.5 3 8.5 4.5s5.5 3 8 4.5s5.5 3.5 8 6s6 6 7.5 7m-116-18c-1.5-1.5-6-7.5-7-9s0 0 0 0"/><path class="ink thick" d="M489 129.5c1 .5 6.5.5 5 1s-11 2-15 3s-6.5 1-10 1.5s-6 1-9.5 1s-6 .5-9 .5s-6.5.5-9.5 0s-6 0-9-.5s-6-1-9-1.5s-6-1-9-1.5s-5.5-2-8.5-3s-5.5-2-8.5-3s-5.5-3-8-4.5s-5.5-3-8.5-5s-6.5-5-7.5-6"/><path class="wash shine" d="M384 106.5c7-.5 28-3.5 39.5-2.5s29.5 7.5 30.5 9.5s-15 4-26.5 3s-36-8-43.5-10z"/><path class="ink mid" d="M366 102.5c3 .5 13.5 3 20.5 4.5s13.5 3 20.5 5s13.5 3 20.5 4.5s13.5 3 20.5 4.5s13.5 3 20.5 4.5s17 3.5 20.5 4"/><path class="wash" fill-rule="evenodd" style="--dl:-.013;--dh:-2.2" d="M367.5 103.5c0 2 1 7 1 9.5s-.5 5.5-1 7.5s-.5 4.5-1 7s-1 4.5-2 7s-2.5 4.5-4 7s-2 4-3.5 6s-2.5 4-4 6s-3 3.5-4.5 5s-3 3.5-5 5.5s-3 3.5-5 5.5s-3.5 2.5-5.5 4s-3.5 2.5-5.5 4s-4.5 3-6.5 4.5s-6.5 2.5-8.5 4s-2.5 4.5-2.5 3.5s1.5-7 2-10s.5-5 1-7.5s2-5.5 3-8s1.5-4.5 2.5-7s1.5-4.5 2.5-6.5s2-4.5 3-6.5s2.5-4 4-6s2.5-4.5 4-6s2.5-3.5 4.5-5s3-3 4.5-4.5s3-3.5 5-5.5s4-3.5 6-5.5s4-3 6.5-4s7-2.5 8.5-3.5s.5 0 .5-.5z"/><path class="wash deep" fill-rule="evenodd" style="--dl:-.013;--dh:-2.2" d="M357 118.5c0 .5.5 3 .5 4.5s0 2.5 0 3.5s-1 2.5-1 4s-.5 2-.5 3.5s-.5 3-1 4s-1.5 3-2 4s-2 2-2.5 3s-2 2-3 3s-1.5 2-2.5 2.5s-2 1-3 2s-2 2.5-3 3.5s-2.5 2-3.5 2s-.5-1-1.5-1s-2-.5-2.5 0s-2.5 3.5-2.5 3.5s.5-3.5.5-5s0-1.5 0-2.5s-1-1-1-2s1-3 2-4s1.5-3.5 2.5-4.5s0-2 .5-3s.5-2.5 1-3.5s2-2.5 3-4s2-2 2.5-3s2-2.5 3.5-3s2-1 3-2s2-.5 3-1.5s2-2 3.5-3s4-1.5 4.5-2s-.5 1-.5 1z"/><path class="ink thin" d="M308.5 188c.5-2 2-8.5 3-11.5s1-5 1.5-7.5s1-4.5 2-7s1.5-4.5 2-7s2-4.5 3-6.5s2-4 3-6.5s2.5-4 3.5-6s2.5-4 4-6s2.5-3.5 4.5-5.5s3-3.5 4.5-5.5s3.5-3 5.5-5s3.5-3 5.5-4.5s4-3 6.5-4s7.5-2.5 9-3s0 0 0 0"/><path class="ink thick" d="M366 102.5c0 1.5 1 6 1 9s-.5 5-1 7.5s-1 5-2 7.5s-1.5 4.5-2 6.5s-2 4.5-3 6.5s-2.5 4.5-3.5 6.5s-2.5 4-4 5.5s-3 4-4.5 5.5s-3 4-4.5 5.5s-3.5 3.5-5.5 5s-3.5 3.5-5.5 5s-4 3-6 4.5s-4 3-6.5 4s-6.5 2.5-8 3.5s-2 2.5-2.5 3.5"/><path class="wash shine" d="M358 115c-1.5 5-4.5 21.5-8.5 29.5s-14.5 19.5-16 19s1.5-11.5 5.5-19.5s16-24.5 19-29z"/><path class="ink mid" d="M366 102.5c-1.5 2-6 9-9 14s-6 9-9 13.5s-6 9.5-9 14s-6 9-9 13.5s-6.5 9-9.5 13.5s-8 11.5-9.5 13.5"/><path class="wash" fill-rule="evenodd" style="--dl:-.044;--dh:-8.3;--dc:.99" d="M396 157.5c1.5.5 7 1 10 2s5.5 3.5 8 5s5 4 7.5 6s4 3 6 4.5s4 3 5.5 4.5s4 4 5.5 6s3.5 4.5 5 6.5s3.5 4.5 5 7s2.5 5 3.5 7.5s2.5 4.5 3.5 7.5s3 5.5 4 8s2 6 3 9s1 5 1.5 8s-.5 7 0 9s4 3.5 2.5 3s-9-6-12.5-8s-4.5-3-7-4s-4.5-2.5-6.5-4s-4.5-3.5-6.5-5.5s-4.5-3.5-6.5-5.5s-3.5-3.5-5.5-5.5s-3.5-3.5-5.5-6s-3.5-4-5-6s-3.5-5-5-7s-3.5-5.5-4.5-8s-2-5-3-7.5s-1-5-2-7.5s-2-6-2-9s.5-9 .5-10.5s.5.5.5.5z"/><path class="wash deep" fill-rule="evenodd" style="--dl:-.044;--dh:-8.3;--dc:.99" d="M406.5 172c1 .5 4 1.5 5.5 2.5s2.5 1 4 1.5s2 1 3.5 2s2 1.5 3.5 2.5s2.5 1.5 4 2.5s3 2 4 3.5s1.5 2.5 2 4s1 2.5 2 4s2 3 2.5 4s1 3 1.5 4s.5 2.5 1 4s2 3.5 2 5s0 2.5-.5 3s-2.5 0-2.5.5s2 2 1.5 2.5s-2.5 0-3.5-.5s-2.5-1-3.5-1.5s-2-1-3-1.5s-2-.5-3.5-1s-2.5-3-3.5-4s-2.5-3-3.5-4s-2-1-3-2s-2.5-2-3.5-3.5s-1.5-3-2-4.5s-1.5-3-2-4.5s-1-3-1.5-4.5s0-2 0-3.5s-.5-2.5-1-4.5s-1-5.5-1-6.5s0 .5.5.5z"/><path class="ink thin" d="M394.5 155.5c1.5 0 7 1 10 2s5.5 3 8 4.5s4.5 3 7 4.5s4.5 3.5 6.5 5.5s4 4 6 6s3.5 4 5 6s3.5 4 5 6.5s3 4.5 4.5 6.5s3.5 6 4 7.5m12 41.5l3 4m-50.5-39c-.5-1-3.5-4.5-5-6.5s-3-4.5-4-7s-3-4.5-4-7s-2.5-5-3.5-8s-2-5-2.5-8s-2-5.5-2-8.5s0-9 .5-10.5s0 0 0 0"/><path class="ink thick" d="M450.5 204.5c.5 1 2.5 5 3.5 7.5s2 5 3 8s2 5 3 8s1.5 5.5 2 8.5s.5 8 .5 9.5m3 4c-2-1.5-8.5-5.5-11.5-7.5s-5.5-2.5-8-4s-4.5-3.5-7-5s-4.5-3.5-6.5-5s-4-4-6-5.5s-4-4-6-6s-4.5-5-5.5-6"/><path class="wash shine" d="M404.5 169c5 3.5 21.5 13.5 29 21s15.5 22.5 14.5 24.5s-12-6.5-19.5-14s-20-26.5-24-31.5z"/><path class="ink mid" d="M394.5 155.5c1.5 2.5 7.5 10 11 15s8 10 11.5 15s8 10 11.5 15s7.5 10 11.5 15.5s7.5 10 11.5 15s9.5 12.5 11 15"/><path class="wash" fill-rule="evenodd" style="--dl:-.019;--dh:6.5;--dc:.89" d="M395.5 159c1 1.5 5.5 6.5 7.5 10s2.5 7 3.5 10.5s1.5 6.5 2.5 9.5s1.5 5.5 2 8.5s1 6 1 9.5s0 6.5-.5 10s-1 6.5-1.5 10s-1 7-2 10s-2 6.5-3.5 10s-2 6.5-3.5 10s-3 7-4.5 10.5s-3.5 6-5.5 9s-4 4.5-6.5 7.5s-6.5 6-8 8.5s-1 7-1.5 5.5s-1.5-11.5-2.5-15.5s-1.5-5.5-2-8.5s-1.5-6-2-9.5s0-7-.5-10.5s0-6.5 0-9.5s-.5-6-.5-9.5s0-6.5.5-10s.5-6.5 1-10s1.5-7 2-10.5s2-6.5 3-9.5s2.5-5.5 4-8.5s2.5-6.5 4-10s2.5-7 5-10s7-7.5 8.5-8.5s0 .5 0 1z"/><path class="wash deep" fill-rule="evenodd" style="--dl:-.019;--dh:6.5;--dc:.89" d="M393 178.5c1 .5 3.5 3 4.5 4.5s2 3 3 5s1 4 1 6s1 4.5 1 6.5s.5 4 0 5.5s-1 3.5-1.5 5s-1.5 2.5-1.5 4s-.5 4-.5 6s-1 4-1.5 5.5s-1.5 2.5-2 4s-1.5 4-2.5 6s-1.5 4-2.5 5.5s-2 1.5-3.5 3.5s-3.5 6-5 9s-1.5 10.5-2 10.5s-1.5-6.5-1.5-9.5s-.5-6.5-.5-9s-1-4-1-6s0-5 .5-7.5s.5-5 .5-7s-.5-2.5-.5-4.5s0-3.5.5-5.5s1.5-4 2-6s1-3.5 1.5-5s.5-3 1-4.5s1-3 1.5-5s1-3.5 1.5-6s1.5-5 2.5-7.5s4.5-5 5-5.5s0 1.5 0 2z"/><path class="ink thin" d="M394.5 155.5l7.5 10m-29 133c0-3-1.5-11.5-2.5-15.5s-1.5-7-2-10s-1-7-1-10s-1-7-1-10s-.5-6.5-.5-10s0-6.5.5-10s0-6.5.5-9.5s1-7 1.5-10s1-6.5 2-10s1.5-6.5 2.5-9.5s2-6.5 3.5-10s2.5-6.5 4-9.5s3-6.5 5-9.5s7.5-8 9-9.5s0 0 0 0"/><path class="ink thick" d="M402 165.5c.5 1.5 2.5 7 3.5 10s2 7 2.5 10s1.5 7 1.5 10s.5 6.5.5 10s0 6.5-.5 10s-.5 6.5-1 9.5s-1.5 7-2.5 10s-2 6.5-3 10s-2.5 6-3.5 9.5s-3 6.5-5 9.5s-3 6.5-5 10s-4 6-6.5 9.5s-7 7-8.5 9.5s-1 4.5-1.5 5.5"/><path class="wash shine" d="M393 176c1.5 7 8 29.5 8 42s-6.5 33-8.5 34s-5-15-5-28s4.5-40 5.5-48z"/><path class="ink mid" d="M394.5 155.5c-.5 3.5-1 15-1.5 23s-1.5 15-2.5 23s-1.5 15-3 22.5s-2 15.5-3.5 23s-2.5 15.5-4.5 23s-4 19-5 23"/></g><g class="gp" data-g=".384" data-o="361.5 -40.5"><path class="ink mid" d="M361.5-40.5c2.5-2.5 10.5-10.5 15.5-15.5s11-9.5 16.5-14s11-8.5 16.5-12.5s11-7.5 17-11s11.5-6.5 17.5-9.5s12-5.5 18-8s12-5 18-7s12.5-3.5 19-5s12.5-3 19-4s16-2 19.5-2.5"/><path class="wash" fill-rule="evenodd" style="--dl:.027;--dh:2.2;--dc:1.04" d="M411-79.5c-.5-1-1.5-5-2-7s-1-4-1-6s-.5-3-.5-5s.5-3.5.5-5.5s.5-3.5 1-5.5s.5-3 1-4.5s1-3.5 1.5-5s1.5-3 2-4.5s1-3.5 2-5s1.5-3.5 2.5-5s1.5-3 2.5-4.5s2-3 3.5-4.5s2-3 3.5-4.5s3.5-3 4.5-4s.5-4 1-3s1 5.5 1 8s.5 4.5.5 6.5s-.5 4-.5 6s0 3.5 0 5.5s-.5 3.5-.5 5s-.5 3.5-1 5s-.5 3.5-1 5s-.5 3.5-1 5s-1.5 3-2 4.5s-1.5 3-2 4.5s-2 3.5-3 5s-1.5 3.5-3 5s-2 3-4 4.5s-4.5 4-5.5 4.5s0-.5 0-.5z"/><path class="wash deep" fill-rule="evenodd" style="--dl:.027;--dh:2.2;--dc:1.04" d="M413.5-91.5c0-.5-1-2-1.5-3s0-2.5-.5-3.5s0-2 0-3s-.5-2-.5-3s0-2 .5-3s1-2 1.5-2.5s.5-2 1-2.5s.5-1.5 1-2.5s.5-1 1-1.5s1-2 1.5-3s1-2.5 1.5-3s.5-.5 1-1s1-.5 2-1.5s2-3 2.5-4s1-3 1-3s.5 3 1 3.5s1 1 1 1.5s.5 2.5 0 4s-.5 3.5-1 4.5s0 2.5-.5 3s.5 2 0 3s-.5 2-1 3s-.5 2-1 3s-.5 1.5-1 2.5s-1 1.5-1.5 2s-1 1-1.5 1.5s-1 2-1.5 3s-1 2.5-2 3.5s-2.5 1.5-3 1.5s0 .5 0 .5z"/><path class="ink thin" d="M410-82.5c-.5-1-2-4-2.5-6s-1-3.5-1-5.5s0-3.5 0-5.5s0-3.5 0-5.5s.5-3 1-5s.5-3.5 1-5s1-3.5 1.5-5s1-3 2-4.5s1-3.5 2-5s1.5-3 2.5-4.5s2-3 2.5-4.5s2.5-3 3.5-4.5s2-3 3.5-4.5s3.5-2.5 4.5-4s.5-2 1-2.5m-21.5 71.5l0 0"/><path class="ink thick" d="M431.5-154c0 1.5.5 6 .5 8.5s.5 4 .5 5.5s.5 3.5.5 5.5s0 3.5 0 5.5s-.5 3.5-.5 5s-.5 3.5-1 5s-.5 3.5-1 5s-1 3.5-1.5 5s-1 3.5-2 5s-1 3-2 4.5s-1.5 3.5-2.5 5s-2 2.5-3.5 4s-2 3-3.5 4.5s-4.5 3-5.5 3.5"/><path class="wash shine" d="M413-92.5c0-4-1-16 0-22.5s5.5-16.5 7-17s1.5 8.5 0 15s-6 20.5-7 24.5z"/><path class="ink mid" d="M410-82.5c.5-2 2-7.5 3.5-11.5s2-7.5 3.5-11.5s2-7.5 3-11.5s2.5-7.5 3.5-11.5s2.5-7.5 3.5-11.5s3-9.5 3.5-11.5"/><path class="wash" fill-rule="evenodd" style="--dl:.016;--dh:9.9;--dc:1.11" d="M411-81c1 0 5-1 7-1.5s4.5.5 7 1s4.5 1.5 6.5 2s4.5 2 6.5 2.5s3.5 2 5.5 3s3.5 2 5 3s3 2 5 3s3 2.5 4.5 3.5s3.5 2.5 4.5 4s2.5 3 4 4.5s3 3 4.5 4.5s3 3.5 4.5 5.5s2.5 3.5 4 6s2.5 5.5 3.5 7s4.5 2.5 3.5 2.5s-8-2.5-11-3s-5-1.5-7-2s-4-1-6-1.5s-4-1-6-2s-4-1.5-6-2.5s-3.5-1.5-5-2.5s-3.5-2-5.5-3s-3-2.5-4.5-3.5s-3-2.5-4.5-3.5s-3.5-2.5-5.5-4s-3-3-4.5-4.5s-2.5-3.5-4-5s-3-4-4-6s-2-6-2-7.5s0 0 0 0z"/><path class="wash deep" fill-rule="evenodd" style="--dl:.016;--dh:9.9;--dc:1.11" d="M423-73c0 0 1.5-1.5 2.5-1.5s2.5 0 4 .5s2 .5 3.5 1s2 .5 3 1s2.5 1 3.5 1.5s2 1 3 1.5s2.5 1 4 2s2 1.5 2.5 2s.5 1.5 1 2.5s.5 1 1 2s1.5 1.5 2 2.5s.5 1 1 2s1.5 2 2.5 3s3 4 3.5 5s1 0 0 0s-4.5-2-6-2s-1 .5-1.5 1s-1 .5-2 .5s-2-.5-3-1s-2 0-3-.5s-2-1-3.5-2s-2.5-2-3.5-3s-2-1.5-3-2s-1.5-1-2.5-2s-2-1.5-2.5-2s-1.5-2-2-3s-1.5-1.5-2-2.5s-.5-1.5-1-2.5s0-2.5-.5-3s-1-1-1-1z"/><path class="ink thin" d="M410-82.5c1.5 0 5.5-1 7.5-1s4.5.5 7 1s4 1 6 1.5s4 1.5 6 2s3.5 2 5.5 2.5s3.5 2 5 3s3.5 2.5 5 3.5s3.5 2.5 5 3.5s3 3 4.5 4.5s3 2.5 4.5 4s2.5 3.5 4 5s2.5 3.5 4 5s3 5 3.5 5.5m3 7l2.5 2m-63-31c-.5-.5-2.5-3-4-5s-2.5-3-3.5-5.5s-2-6-2.5-7.5s0 0 0 0"/><path class="ink thick" d="M477.5-42.5l3 7m2.5 2c-1.5-.5-7-2-9.5-2.5s-4.5-.5-6.5-1s-4-1.5-6-2s-4-1-6-2s-3.5-1.5-5.5-2s-4-2-5.5-3s-3.5-1.5-5.5-2.5s-3-2.5-5-3.5s-3-2.5-4.5-4s-3.5-2.5-4.5-4s-4-3.5-4.5-4.5"/><path class="wash shine" d="M420.5-75.5c4.5 1 18.5 4 25.5 7.5s16.5 12 16.5 13.5s-10-1.5-17-5s-20.5-13.5-25-16z"/><path class="ink mid" d="M410-82.5c2 1.5 8 5 12 7.5s7.5 5.5 11.5 8s8 5 12 7.5s7.5 5.5 11.5 8s8 5 11.5 8s10 6.5 12 8"/><path class="wash" fill-rule="evenodd" style="--dl:.024;--dh:-10.6;--dc:1.12" d="M463-108c-.5-1.5-1.5-6.5-1.5-9.5s.5-5 1-7.5s.5-5 1.5-7.5s1.5-4.5 2.5-7s2-4 2.5-6s1.5-4 2.5-6s2-3.5 3-5.5s2.5-3.5 4-5.5s3-3.5 4.5-5.5s3-3.5 4.5-5s3.5-3 5-5s4-3.5 6-5s4.5-4.5 7-6s6-2.5 7.5-3s1.5-4 1.5-2.5s-2 8.5-2.5 11.5s-1 5-1.5 7.5s-1 4.5-2 7s-1 4-1.5 6s-1.5 4.5-2 6.5s-2 4-3 6s-2 4-3 6s-2 4-3.5 6s-2 3.5-3.5 5.5s-2.5 4-4 5.5s-3.5 4.5-5 6s-3.5 3.5-5.5 5s-3.5 2.5-6 3.5s-6.5 3-8 4s-.5.5-.5.5z"/><path class="wash deep" fill-rule="evenodd" style="--dl:.024;--dh:-10.6;--dc:1.12" d="M469-120.5c0-1-.5-4.5 0-6.5s.5-3 .5-4.5s1-3 1.5-4s1-2.5 1.5-3.5s.5-2 1-3s.5-2.5.5-3.5s1.5-2 2-3s1.5-1.5 2-2.5s1.5-2.5 2.5-3.5s2-2.5 2.5-3.5s2-2 3.5-3.5s2.5-3.5 4-5s3.5-3.5 4.5-4s2.5.5 3 1s0-.5-.5.5s-.5 4-1 6s-.5 3-1 4.5s-1 3-1.5 4s0 2-.5 3s-1 2.5-2 4s-2 2.5-2.5 4s-.5 1.5-1 2.5s0 1.5-.5 2.5s-1 2-1.5 3.5s-1.5 2-2.5 3s-1.5 2.5-2.5 3.5s-2 1.5-3.5 2.5s-1.5 1-3 2s-4.5 2.5-5.5 3s0 .5 0 .5z"/><path class="ink thin" d="M462.5-111c-.5-1.5-1.5-6-2-9s.5-4.5.5-7s1-5 1.5-7s1-4.5 2-6.5s1.5-4.5 2.5-6.5s1.5-4 2.5-6s2.5-4 3.5-6s2.5-3.5 4-5.5s3-3.5 4.5-5.5s3-3 4.5-5s3.5-3 5.5-4.5s3.5-3.5 5.5-5s4-3 6-4s6-2.5 7.5-4s1.5-2.5 2-3m-50 84.5l0 0"/><path class="ink thick" d="M512.5-195.5c-.5 2-1.5 8-2 11s-.5 4.5-1 7s-1 4.5-1.5 6.5s-1.5 4.5-2 7s-1.5 4-2.5 6s-1.5 4.5-2.5 6.5s-2 4-3 6s-2.5 4-3.5 6s-2.5 3.5-4 5.5s-2.5 3.5-4 5s-3 3.5-5 5.5s-3.5 3-5 4.5s-3.5 3-6 4.5s-7 2.5-8 3.5"/><path class="wash shine" d="M469-123.5c1-5 3-21 6.5-28.5s12.5-19.5 14.5-19.5s-1 11.5-4.5 19.5s-13.5 23.5-16.5 28.5z"/><path class="ink mid" d="M462.5-111c1-2.5 5-9.5 7.5-14s5-9 7.5-13.5s5.5-9 8-13.5s5.5-9 8-13.5s5.5-9 8.5-13.5s7-11 8.5-13.5"/><path class="wash" fill-rule="evenodd" style="--dl:-.029;--dh:-2.8;--dc:1.13" d="M463.5-109.5c1.5 0 7-.5 10 0s5.5 2 8 3s5 2 7.5 3s4.5 2.5 6.5 3.5s4.5 3 6.5 4.5s4 2.5 6 3.5s4 3 5.5 4.5s4 3.5 5.5 5s3.5 4 5 6s3.5 4 5 6s3 4 4.5 6.5s2.5 4 4 6.5s3.5 5.5 4.5 8s2 7 3 8.5s3.5 2 1.5 1.5s-9-3.5-12.5-4.5s-5-1.5-7.5-2.5s-5-2-7.5-3s-4.5-2-6.5-3s-4.5-2-6.5-3s-4.5-3-6.5-4s-4-3-6-4.5s-4-3-6-4.5s-3.5-3.5-5.5-5.5s-3.5-3.5-5.5-5.5s-3.5-4.5-5-6.5s-3-5-4-7s-2-4.5-2.5-7s-1-7.5-1-9.5s-.5 0-.5 0z"/><path class="wash deep" fill-rule="evenodd" style="--dl:-.029;--dh:-2.8;--dc:1.13" d="M476-98.5c1 0 3.5-.5 5 0s3.5 1.5 4.5 2s2.5 1 3.5 1.5s2.5 0 4 .5s2.5 1 4 2s2.5 1.5 3.5 2.5s3 2 4 3s2 2 2.5 3s.5 2 1.5 3s2 2 3 3.5s3 3 3.5 4s.5 2 .5 3s0 1.5 0 2.5s.5 3 1 3.5s.5 0-.5 0s-4.5-2-5.5-2s0 1.5-1 2s-1.5.5-3 0s-3-2-4.5-3s-2-1-3.5-1.5s-2-1-3.5-1.5s-2-2-3.5-2.5s-2-1.5-3.5-2.5s-2.5-1.5-3.5-3s-1.5-2.5-2.5-4s-.5-2.5-1-3.5s-1.5-2.5-2-3.5s-1.5-2.5-1.5-3.5s-.5-4-.5-4.5s-.5-.5-1-1z"/><path class="ink thin" d="M462.5-111c1.5 0 6.5-.5 9.5 0s5.5 1.5 8 2s5 2 7 3s5 2.5 7 3.5s4.5 2.5 6.5 4s4 3 6 4.5s4 3 5.5 4.5s4 3.5 5.5 5.5s3.5 3.5 5 5.5s3 4 4.5 6s3 4 4.5 6.5s3.5 5.5 4 6.5m-59.5-22c-1-1-3-4-4.5-6s-3-4.5-4-7s-2.5-4.5-3.5-7s-1.5-8-1.5-9.5s0 0 0 0"/><path class="ink thick" d="M535.5-59.5c.5 1.5 2.5 4.5 4 7s1.5 6.5 2.5 8.5s4.5 3 3 2.5s-8.5-2.5-12-3.5s-5-1.5-7.5-2.5s-5-2-7.5-3s-4.5-2-7-3s-4.5-2.5-6.5-4s-4.5-2.5-6.5-3.5s-4-3-6-4.5s-4-3.5-6-5s-3.5-3.5-5-5s-4-5-5-6"/><path class="wash shine" d="M474-101c5 2 22 7.5 30 13s19 17 18.5 18.5s-12.5-2.5-20.5-8s-23-19.5-28-23.5z"/><path class="ink mid" d="M462.5-111c2 1.5 8.5 7.5 13 11s9 7.5 13.5 11.5s8.5 7.5 13 11s9 7.5 13.5 11s8.5 7.5 13 11.5s11 9 13.5 11"/><path class="wash" fill-rule="evenodd" style="--dl:.042;--dh:8;--dc:.98" d="M502-123.5c0-1.5-1.5-5.5-1.5-8.5s0-5 .5-7.5s1.5-5 2-7.5s1.5-4.5 2.5-7s2-4.5 3.5-7s2.5-4.5 4-6.5s2.5-4 4-6.5s3-4 5-6s3.5-4 5.5-5.5s4-3 6-5s4-3 6-4.5s4-2.5 6.5-4s4-2.5 6.5-3.5s7-3 9-4.5s3-5 2.5-3.5s-3 9.5-4 13s-1 5-1.5 7.5s-1 4.5-2 6.5s-1.5 5-2.5 7s-1.5 5-2.5 7s-2 5-3 7s-3 4.5-4.5 6.5s-3 4-4.5 6s-3 4-5 6s-3.5 4-5.5 6s-3.5 3-5.5 4.5s-4 3.5-6.5 5s-4 3-7 4s-6.5 1-8 1s0 0 0 0z"/><path class="wash deep" fill-rule="evenodd" style="--dl:.042;--dh:8;--dc:.98" d="M508-134c0-1-1.5-3-1.5-5s1-3.5 1.5-5.5s1-3 1.5-4.5s1-3 2-4.5s2-2.5 2.5-3.5s1.5-2 2-3s1.5-3 2.5-4s1.5-2 2.5-3s1.5-.5 2.5-1s1.5-1.5 2.5-2.5s2.5-2 3.5-3s2-1.5 3.5-3s3.5-3.5 5.5-5.5s6-4 7-5s1-1.5.5 0s-2.5 6.5-3 8s.5 2 0 3.5s-.5 3-1 4.5s-1.5 3-2 4.5s-1 2.5-2 4s-1.5 3-3 4.5s-3 2.5-4 4s-1.5 1.5-2 2.5s-1 2-2 3s-1.5 2-2.5 3s-2 2-3 3s-2 2-3.5 3s-2 1.5-3.5 2s-4 1-5 1.5s-1 1.5-1.5 2z"/><path class="ink thin" d="M499.5-123c-.5-2-1.5-7-1-10s.5-5.5 1-8s1.5-5 2-7.5s2-5 3-7.5s2-4.5 3.5-6.5s2.5-4.5 3.5-6.5s3-4.5 4.5-6.5s3-4 5-5.5s3.5-4 5-5.5s4-3.5 6-5.5s4-3 6-5s4.5-3 7-4.5s4.5-3 7-4.5s6.5-2 8.5-3s2-3 2.5-3.5m-63.5 89.5l0 0"/><path class="ink thick" d="M563-212.5c-.5 2-2.5 8.5-3 12s-1.5 5-2 8s-1.5 5-2.5 7s-1.5 5-2.5 7.5s-2 4.5-3.5 7s-2 4.5-3.5 6.5s-2.5 4.5-3.5 6.5s-3 4-4.5 6s-3 4-5 6s-3.5 4-5 5.5s-4 3.5-6 5.5s-4 3-6.5 4.5s-4 3.5-7 4.5s-7.5 2.5-9 3"/><path class="wash shine" d="M508-136.5c2-5 5.5-22.5 10-31s16-20.5 17.5-20s-2 12.5-6.5 21s-17.5 25-21 30z"/><path class="ink mid" d="M499.5-123c1.5-2.5 6.5-10 9.5-15s6.5-9.5 10-14.5s6.5-9.5 10-14s7-9.5 10.5-14.5s7-9.5 10.5-14s8.5-12 10.5-14"/><path class="wash" fill-rule="evenodd" style="--dl:.03;--dh:-10.3;--dc:1.11" d="M501.5-120.5c1.5 0 7.5.5 10.5 1s5.5 2.5 8 3s4.5 1.5 6.5 2.5s4.5 2 7 3.5s4 3 6.5 4.5s4 3.5 6 5s4 3.5 5.5 5s4 4 5.5 6s3.5 4 5 6.5s4 4.5 5.5 7s3 4.5 4 7s1.5 4.5 2.5 7s2 4.5 3 7s1.5 7.5 2.5 9s4 3 2.5 2.5s-8.5-3-12-4.5s-5-1.5-7.5-2.5s-5-3-7.5-4.5s-4.5-2.5-7-4s-4.5-2-6.5-3s-4.5-2.5-6.5-4s-4-3.5-6-5s-4-3.5-6-5.5s-4-4-5.5-6s-3-4-4.5-6.5s-2.5-4.5-4-6.5s-3.5-5.5-5-8s-2-5-2.5-8s-.5-7.5-.5-9s.5.5.5.5z"/><path class="wash deep" fill-rule="evenodd" style="--dl:.03;--dh:-10.3;--dc:1.11" d="M514-108.5c.5 0 3.5 0 4.5.5s2.5-.5 4 0s2.5 1.5 4 2s2.5 2 3.5 2.5s2.5 1.5 4 2s3 1.5 4.5 2.5s2.5 2 3.5 3s2 2.5 3 4s2.5 2.5 3 3.5s.5 2 .5 3s0 1.5.5 3s2.5 3 3.5 4.5s2 3.5 2 4.5s-1 2.5-1 3s1.5 1 .5.5s-4-1.5-6-2.5s-3-1.5-4-2s-2 0-2.5 0s-1 1.5-2 1s-2.5-1-4-2s-3-2.5-4-3.5s-2.5-1.5-3.5-2.5s-2.5-2-3.5-3.5s-2-2.5-3-3.5s-2-2-3-3.5s-2-2.5-2.5-4s-.5-2.5-.5-3.5s0-2-.5-3.5s-1-4.5-1-5s0-.5 0-.5z"/><path class="ink thin" d="M499.5-123c1.5 0 7 0 10 .5s5.5 1.5 8 2.5s5 2.5 7.5 3.5s4.5 3 7 4s4.5 3 6.5 4.5s4 3.5 6 5s4 3.5 5.5 5.5s3.5 4 5.5 6s3 4 4.5 6s3.5 4.5 5 6.5s3 6 4 7m9.5 24.5l3 3m-64.5-40.5c-1-1-3.5-4-5-6s-3-4.5-4.5-7s-2.5-4.5-3.5-7s-2.5-5-3.5-8s-1-8.5-1-10s0 0 0 0"/><path class="ink thick" d="M569-72c.5 1.5 2.5 5 3.5 7.5s2.5 5 3.5 8s2 7.5 2.5 9m3 3c-2-1-9-3.5-12-5s-5.5-2-8-3s-5-2.5-7.5-3.5s-4.5-2.5-7-4s-4.5-2.5-7-4s-4-3-6-4.5s-4.5-3.5-6-5s-4-3.5-6-5.5s-4.5-5-5-6"/><path class="wash shine" d="M511-112c5.5 2.5 22.5 9.5 30.5 15.5s18.5 19 18 21s-12.5-4-20.5-10s-23-22-28-26.5z"/><path class="ink mid" d="M499.5-123c2 2 8.5 8 13 12.5s9 8 13.5 12.5s8.5 8 13 12.5s8.5 8.5 13 12.5s9 8.5 13 12.5s11 10.5 13.5 13"/><path class="wash" fill-rule="evenodd" style="--dl:.015;--dh:.2;--dc:1.02" d="M539.5-127.5c1-1.5 4.5-6.5 7-9s5-3.5 7-5.5s3.5-3 5.5-4.5s4-3 6.5-4s4.5-2.5 6.5-3.5s4.5-2.5 7-3.5s5-1.5 7.5-2.5s5-1 7.5-1.5s5.5-1 8-1.5s6-1 8.5-1.5s5.5 0 8 0s5.5 0 8 0s5.5.5 8 1s5.5 2.5 7.5 2.5s4-2 3-1s-6.5 6-9 8.5s-3.5 3.5-5.5 5s-5 3.5-7.5 5s-4 3-6.5 4.5s-4 3-6.5 4s-4.5 2.5-7 3.5s-4.5 2.5-7 3.5s-5 2-7.5 3s-5.5 1.5-8 1.5s-5 .5-7.5 1s-5.5.5-8 .5s-5.5 0-8.5-.5s-5-.5-8-1.5s-7.5-3-9.5-3.5s.5 0 .5 0z"/><path class="wash deep" fill-rule="evenodd" style="--dl:.015;--dh:.2;--dc:1.02" d="M554-132.5c.5-1 1.5-3.5 2.5-5s2-2.5 3-3.5s2.5-2 4-3s3.5-1.5 5-2s3-1 4.5-1.5s2.5-1 4-1.5s2.5-1.5 4-2s2.5 0 3.5 0s2.5-.5 4-.5s2.5 0 3.5 0s1 1 2 1s2.5 0 4.5-.5s6-1.5 8.5-1.5s5.5.5 7 .5s2-1.5 1.5-.5s-3 3-4.5 4.5s-2 2-3.5 3s-3.5 2.5-5 3.5s-1.5 1.5-2.5 2.5s-1.5 1.5-3 2.5s-4.5 1-6.5 1.5s-3.5 1-5 1s-3 1-4 1.5s-3 .5-4 .5s-2.5 0-4 .5s-2.5 1-4 1s-3.5.5-4.5 0s-2-.5-3.5-1s-4-1.5-5.5-2s-1.5.5-2 1z"/><path class="ink thin" d="M538-129.5c1-1.5 3.5-6 5.5-8.5s4-4 6.5-5.5s4.5-3.5 6.5-5s4.5-2.5 7-4s4.5-2.5 7-3.5s5-2 7.5-3s4.5-1.5 7-2.5s5-1 8-1.5s5-1 7.5-1.5s5-.5 8-1s5 0 8-.5s5.5 0 8 .5s5.5 0 8.5.5s7 1.5 8.5 2m-103.5 33.5l0 0"/><path class="ink thick" d="M641.5-163c1 0 5.5-2.5 4.5-1.5s-7.5 6.5-10.5 9s-4 3.5-6 5.5s-4.5 3.5-7 5s-4.5 3-6.5 4.5s-4.5 2.5-7 4s-4.5 2.5-7 3.5s-5 2-7.5 3s-4.5 1.5-7 2.5s-5.5 1-8 1.5s-5 1-7.5 1.5s-5.5 0-8 .5s-5.5 0-8.5-.5s-5.5 0-8-1s-8-3-9.5-4"/><path class="wash shine" d="M553.5-134c5-3.5 19-15 28.5-19.5s25-7 26.5-6s-9.5 9.5-18.5 14s-30.5 9.5-36.5 11.5z"/><path class="ink mid" d="M538-129.5c3-1 11.5-3.5 17.5-5s11.5-4 17-5.5s11.5-4 17.5-5.5s11.5-4 17-6s11.5-3.5 17.5-5.5s14.5-5 17-6"/><path class="wash" fill-rule="evenodd" style="--dl:-.026;--dh:-1.5;--dc:.88" d="M541.5-126.5c1.5-.5 6-2.5 9-3s4.5-1 7-1s5.5.5 8.5 1s5 1 7.5 2s5 1 7 1.5s5 2 7.5 3s4.5 2 6.5 3s5 2 7.5 3.5s4.5 3 7 4.5s4 3.5 6 5.5s3.5 3.5 5.5 5.5s4 4 6 6s3.5 4 5 6.5s3.5 6.5 5 8s5.5 2.5 4 2.5s-9.5-1.5-13.5-2s-6-1-9-1.5s-5-.5-7-1s-5-.5-7-1s-5-1.5-7.5-2s-5-1-7-2s-5-1.5-7.5-2.5s-4.5-2.5-7-3.5s-4.5-2.5-6.5-4s-5-3-7.5-4.5s-4.5-3-6.5-5s-4-3.5-6-5.5s-4-4-5.5-6.5s-3-7-3.5-8.5s1.5.5 2 1z"/><path class="wash deep" fill-rule="evenodd" style="--dl:-.026;--dh:-1.5;--dc:.88" d="M552.5-121.5c1-.5 3.5-1.5 5.5-2s4.5.5 6 1s3.5 1.5 5 2s2.5 0 3.5.5s2.5 0 4 .5s2.5 1 3.5 1.5s2.5 1 4 1.5s3 1 4 2s1.5 1.5 2.5 2.5s2.5 1.5 4 2.5s5 2.5 7 4s4 2.5 5 4s1 2 1.5 3.5s2 3.5 2.5 4.5s2 .5.5.5s-7.5-2-10-2.5s-2.5 0-3.5 0s-2 .5-3.5 0s-3.5-1.5-5.5-2s-3.5-2-5-2.5s-2-.5-3-.5s-2.5-1-3.5-1.5s-2-.5-3.5-1s-2.5-.5-4-1s-2.5-1-4-2s-2-2.5-3-3.5s-2-2-3.5-3s-3-2.5-4-4s-2.5-4.5-3-5.5s.5.5.5.5z"/><path class="ink thin" d="M538-129.5c1.5-.5 6.5-2 9.5-2.5s5.5-.5 8.5-.5s5.5.5 8 1s5 1 7.5 1.5s5.5 1 7.5 2s5 2 7.5 3s4.5 2 7 3s4.5 2.5 6.5 4s4.5 3 6.5 4.5s4 3.5 6.5 5s4 3.5 6 5.5s3.5 4 5.5 6s4 4 5.5 6.5s3.5 6.5 5 8.5s3 1.5 4 2m-96.5-40.5c-.5-1.5-4-7.5-4.5-9s0 0 0 0"/><path class="ink thick" d="M639-80c-2-.5-9-1-12.5-1.5s-5.5-.5-8-.5s-5.5-1-8-1.5s-5-1-8-1.5s-5-1-7.5-2s-4.5-1.5-7-2.5s-5-1.5-7.5-2.5s-4.5-2.5-6.5-3.5s-5-2.5-7-4s-4.5-2.5-6.5-4s-4-3.5-6.5-5s-4-3.5-6-5.5s-4.5-5.5-5.5-6.5"/><path class="wash shine" d="M553-123c5.5 1 23.5 1.5 33 4.5s23 12.5 23 14.5s-12.5 0-22-3s-28.5-13.5-34-16z"/><path class="ink mid" d="M538-129.5c2.5 1.5 11 5 16.5 7.5s11 4.5 16.5 7.5s10.5 5 16 7.5s11 5.5 16 8s11 5.5 16 8.5s13.5 7 16 8.5"/></g><g class="gp" data-g=".517" data-o="512.5 -55.5"><path class="ink mid" d="M512.5-55.5c3.5 2 13.5 7.5 20 12s13.5 8.5 20 13s13 9.5 19.5 15s12.5 10.5 19 16.5s12.5 11.5 19 18s12 12.5 18 19.5s12.5 13.5 18.5 21s11.5 15 17.5 22.5s11.5 16 17.5 24.5s14 21.5 17 25.5"/><path class="wash" fill-rule="evenodd" style="--dl:-.038;--dh:-3.4;--dc:.88" d="M574.5-14c1-1 3.5-4.5 5.5-6s4-3 5.5-4s3.5-2.5 5.5-3.5s3.5-2 6-2.5s4.5-1.5 7-2s4.5-1 6.5-1s4.5-1 7-1.5s4.5 0 6.5 0s4.5 0 7 0s4.5 0 6.5.5s4.5.5 6.5 1s3.5 1 5.5 1.5s4.5 1 7 2s5.5 2.5 7.5 2.5s5-1.5 4-.5s-6.5 4-9 5.5s-3.5 2.5-5.5 4s-4.5 2-6.5 3s-4.5 2-6.5 3s-4 1.5-6 2.5s-4 1.5-6.5 2s-4.5 1-7 1.5s-4 .5-6.5.5s-4.5.5-6.5.5s-4-.5-6-.5s-4.5-.5-7-1s-5 0-7-1s-4.5-1-7-2s-5-3.5-6-4.5s-.5 0-.5 0z"/><path class="wash deep" fill-rule="evenodd" style="--dl:-.038;--dh:-3.4;--dc:.88" d="M586-16c.5-.5 2.5-2.5 4-3.5s1.5-1.5 3-2.5s2.5-1 3.5-1.5s3-.5 4.5-.5s2-.5 3-.5s2-1 3-1.5s2.5 0 3.5-.5s2.5-.5 4-.5s3-1 4.5-1s2.5.5 3.5.5s1.5.5 3 1s3.5 0 5.5 0s5 0 7 .5s3 1.5 3.5 2s2.5-1 1.5 0s-4.5 2.5-6.5 3.5s-5 1.5-7 2s-4 1-5 1.5s-1 1-1.5 1.5s-2 1-3 1.5s-3 .5-4.5.5s-2 .5-3 1s-2 0-3.5.5s-2 0-3 0s-2.5.5-3.5.5s-3.5 1-5 1s-2.5-.5-4-1s-2-1-3.5-2s-4-2-4.5-2.5s.5 0 .5 0z"/><path class="ink thin" d="M572-15.5c1-1 4-4.5 6-6.5s4-2.5 6-4s4-2 6-3s4.5-1.5 6.5-2.5s4.5-1.5 6.5-2s4-1 6.5-1.5s4.5-.5 6.5-1s4.5 0 6.5 0s4.5-.5 7 0s4.5 0 6.5 0s4.5.5 7 1s4.5 1 6.5 1.5s5 .5 7 1.5s6 2.5 7.5 3m-92 13.5l0 0"/><path class="ink thick" d="M664-29c.5 0 4.5-1 3.5-.5s-7 4.5-9.5 6s-4.5 2.5-6.5 3.5s-4 2-6 3s-4.5 2-6.5 3s-4 1.5-6.5 2.5s-4 1-6 1.5s-4.5 1.5-6.5 1.5s-4.5 1-7 1s-4 .5-6.5.5s-4.5 0-6.5 0s-4.5-.5-7-.5s-4.5-1-6.5-1.5s-5-1-7-2s-6.5-4-7.5-4.5"/><path class="wash shine" d="M585.5-17.5c4.5-2 18.5-10 26.5-12s22.5-2.5 23.5-1.5s-9.5 6.5-17.5 9s-27 4-32.5 4.5z"/><path class="ink mid" d="M572-15.5c2.5-.5 10-1.5 15.5-2s10-1.5 15-2.5s10.5-1.5 15.5-2s10-1.5 15-2.5s10.5-1.5 15.5-2s12.5-2 15.5-2.5"/><path class="wash" fill-rule="evenodd" style="--dl:.043;--dh:4.9;--dc:.91" d="M573.5-13.5c.5 1 2.5 4.5 3 6.5s1 3.5 1.5 5.5s1 3 1.5 4.5s.5 3.5.5 5.5s0 3.5 0 5s0 3.5-.5 5.5s-1 3.5-1.5 5.5s-1 3-1.5 5s-1.5 3.5-2 5s-1.5 3.5-2 5s-2 3-3 4.5s-2 3.5-3 5s-2 3-3.5 4.5s-3.5 2.5-4 3.5s-.5 3.5-1 3s-1-5-1.5-7s-1-3.5-1-5s-.5-4-.5-5.5s-.5-3.5-.5-5.5s0-3.5 0-5.5s.5-3.5.5-5s.5-3.5.5-5.5s.5-3.5 1-5.5s1-3.5 2-5s1-3 2-4.5s1-3.5 2-5s1.5-3 2.5-4.5s2-3 3-4.5s4.5-4.5 5.5-5.5s0 0 0 0z"/><path class="wash deep" fill-rule="evenodd" style="--dl:.043;--dh:4.9;--dc:.91" d="M570.5-4c.5.5 2 2 2.5 3s.5 3 .5 4.5s0 2.5 0 3.5s0 2 0 3s-.5 1.5-.5 2.5s0 1.5 0 2.5s0 2 0 3s-.5 2-1 3s-.5 1-1 2s-1 2-1 3s-1 2.5-1.5 4s-1 2-2 3s-1 3-2 4.5s-3 4-3.5 5s0 .5 0-1s.5-6 .5-7.5s-.5-2-.5-3s-.5-2-.5-3s0-2.5.5-3.5s-.5-1.5-.5-2.5s.5-2 .5-3s1-2.5 1-3.5s.5-1.5.5-2s0-1.5 0-2.5s.5-2 .5-3s1-2 1.5-3s.5-2.5 1-3.5s1.5-1.5 2-2.5s2.5-1.5 3-2s0-.5 0-1z"/><path class="ink thin" d="M572-15.5l3.5 6m-19.5 69.5c0-1.5-.5-6.5-1-8.5s-.5-4-1-5.5s0-4-.5-5.5s0-3.5 0-5.5s0-3.5 0-5s0-4 .5-5.5s.5-3.5.5-5.5s1-3 1-5s1-3.5 1.5-5s1-3.5 2-5s1-3.5 2-5s1.5-3.5 2.5-5s2-3.5 3.5-5s4-4 5-4.5s0 0 0 0"/><path class="ink thick" d="M575.5-9.5c0 .5 1 3.5 1.5 5.5s.5 3.5 1 5.5s0 3.5.5 5s-.5 4-.5 5.5s0 3.5-.5 5.5s-.5 3-1 5s-1 3.5-1.5 5s-1 3.5-2 5s-1.5 3.5-2 5s-2 3.5-3 5s-2 3.5-3 5s-2 3-3.5 5s-3.5 3-4.5 4.5s-.5 2.5-1 3"/><path class="wash shine" d="M570.5-4.5c0 3.5 3 16 2.5 22.5s-4.5 17.5-6 18s-2-8.5-1.5-15s4-21.5 5-25.5z"/><path class="ink mid" d="M572-15.5c-.5 2-1.5 8-2 12s-1.5 8-2 12s-1.5 8.5-2.5 12.5s-1.5 8-2.5 12s-2 8-3 12s-2.5 10-3 12"/><path class="wash" fill-rule="evenodd" style="--dl:-.007;--dh:-7.4;--dc:.99" d="M628 40c1.5-.5 4.5-3.5 7-4.5s5-1 7.5-1.5s4.5-.5 6.5-1s4-.5 6-.5s4-.5 6 0s4.5.5 6.5.5s3.5 1 5.5 1s4 1 6 1.5s3.5 1.5 5.5 2s3.5 1 5.5 2s4.5 1.5 6.5 2s4 2 6 3s3.5 2.5 5.5 3.5s4 4 6 5s4.5 0 3.5.5s-7.5 2-10 2.5s-4 1-6 1.5s-4 1-6.5 1.5s-5 0-7 0s-4.5 0-6.5 0s-4 0-6 0s-4 0-6-.5s-3.5-.5-5.5-1s-4-.5-6-1s-4-1-5.5-2s-3.5-1.5-5.5-2s-4-2-6-3s-5-2-7-3.5s-4.5-5-5.5-6s-.5 0-.5 0z"/><path class="wash deep" fill-rule="evenodd" style="--dl:-.007;--dh:-7.4;--dc:.99" d="M643 42c.5-.5 2.5-1.5 3.5-2s2-1 3-1.5s2 0 3.5-.5s2 0 3-.5s2-.5 3.5-1s2.5 0 4 0s2 1 3 1.5s2 .5 3 1s2.5.5 3.5 1s1 1 2 1.5s2 .5 3.5 1s3 1.5 3.5 2s.5 1 .5 1.5s-.5 1.5 0 2s3 0 3 .5s-2.5 1-3 1.5s-2 .5-2.5 1s-.5 1-1.5 1.5s-1.5.5-3 .5s-3-.5-4.5-.5s-2.5 0-3.5 0s-2 .5-3 .5s-2.5 0-3.5-.5s-2.5-1-3.5-1s-2.5-1-3.5-1.5s-2-1-2.5-1.5s-1-1.5-2-2s-2-1-3-1.5s-3.5-2.5-4-3s.5 0 .5 0z"/><path class="ink thin" d="M628 38.5c1.5-1 4.5-3 7-4s4-1.5 6.5-2s4-1 6-1s4-.5 6-.5s4.5-.5 6.5-.5s4 .5 6 .5s4 .5 6 1s3.5 1 5.5 1.5s4 1 6 1.5s4 1.5 6 2.5s3.5 1.5 5.5 2.5s4 2 5.5 3s4 2 6 3.5s4 4 5.5 4.5s2.5.5 3 .5m-87-13l0 0"/><path class="ink thick" d="M715 51.5c-1.5.5-7 2-9.5 2.5s-4.5 1-6.5 1.5s-4 1-6.5 1s-4 .5-6 1s-4 0-6 0s-4 0-6 0s-4.5 0-6.5-.5s-4-.5-5.5-1s-4-.5-6-1s-4-1.5-6-2s-4-1.5-6-2.5s-3.5-1.5-5.5-2.5s-3.5-2-5.5-4s-4.5-4.5-5.5-5.5"/><path class="wash shine" d="M641 40c4-.5 18-4 26-3.5s20 4 20.5 5s-9.5 3.5-17.5 3s-24.5-3.5-29-4.5z"/><path class="ink mid" d="M628 38.5c2.5 0 9.5 1 14 2s9.5 1.5 14 2s9.5 1.5 14 2s9.5 1.5 14 2s9 1.5 14 2.5s11.5 2 14 2"/><path class="wash" fill-rule="evenodd" style="--dl:-.024;--dh:10.9;--dc:.9" d="M629 42.5c.5 1 2 4.5 3 6.5s1 3.5 1.5 5.5s0 4.5 0 6.5s0 4-.5 6.5s-.5 4-1 6s-1 4-2 6s-1.5 4-2.5 6s-1.5 4-2.5 6s-2 4-3 5.5s-3 3.5-4.5 5.5s-2.5 3-4 4.5s-3 3.5-5 5s-3 2.5-5 4s-5 3-6.5 4.5s-1.5 5-2 4s.5-7 1-10s.5-4.5.5-7s.5-4 .5-6s.5-3.5 1-5.5s.5-4 1-6s.5-4 1-6s1.5-4.5 2-6.5s1.5-4 2.5-5.5s2-4 3-6s2-3.5 3-5.5s2.5-4 3.5-5.5s2.5-3.5 4-5s3-3.5 5-5s5.5-3.5 6.5-4s-.5 1-.5 1.5z"/><path class="wash deep" fill-rule="evenodd" style="--dl:-.024;--dh:10.9;--dc:.9" d="M624.5 52.5c.5.5 1.5 2.5 2 4s.5 2.5.5 4s.5 2 .5 3.5s0 2.5 0 3.5s-1 3-1.5 4s-1.5 2-2 3s-.5 2-1 2.5s-1 2-1.5 3s-1 1-1.5 2.5s-1.5 2.5-2 3.5s-2 2.5-2.5 3s-1 0-2 .5s-1.5 2-3 3.5s-3.5 4-4.5 5.5s-1.5 4-2 3.5s0-3.5 0-5s-.5-1.5-.5-3s1-3.5 1.5-5.5s1.5-3.5 2-5s0-2 0-3s.5-2 1-3s1-2.5 1.5-4s1-2 2-3s1-2 1.5-3s1-1.5 2-2.5s1-1.5 1.5-2.5s1-3 1.5-4s1.5-2.5 2.5-3.5s3-2 4-2s0-.5 0-.5z"/><path class="ink thin" d="M593.5 123c0-1.5.5-7 1-10s0-4 0-6.5s.5-4 1-6s.5-4.5 1-6.5s.5-4 1-6s1-4 1.5-6s1.5-4 2-6s1.5-4 2.5-6s1.5-3.5 2.5-5.5s2-4 3.5-5.5s2-4 3.5-5.5s2.5-3.5 4-5.5s2.5-3.5 4.5-5s5.5-4 6.5-4.5s0 0 0 0"/><path class="ink thick" d="M628 38.5c.5 1 2.5 5 3.5 7.5s.5 4.5.5 6.5s.5 4.5 0 6.5s0 4.5-.5 6.5s-.5 4-1 6s-1 4-2 6s-1.5 4-2 6s-2 4-3 5.5s-2 4-3.5 5.5s-2.5 4-3.5 5.5s-3 3.5-4.5 5.5s-3 3.5-5 5s-3 3.5-5 5s-5.5 3-7 4.5s-1 2.5-1.5 3"/><path class="wash shine" d="M624.5 51c-.5 4.5.5 19-1.5 27s-9 19.5-10.5 19.5s-1-10 1-17.5s9-24.5 11-29z"/><path class="ink mid" d="M628 38.5c-.5 2-2.5 9-4 14s-3.5 9-5 13.5s-3.5 9-5.5 14s-3.5 9-5.5 13.5s-4 9-6 13s-5.5 11.5-7 13.5"/><path class="wash" fill-rule="evenodd" style="--dl:.009;--dh:-9.7;--dc:.99" d="M664 83.5c1.5-.5 6.5-3.5 10-4.5s5.5-1.5 9-1.5s6-.5 9.5-.5s6.5 1 9.5 1.5s5.5 1 8 1s5 1 8 1.5s5 1.5 7.5 2.5s5 1.5 7.5 2.5s5.5 2 8 3.5s4.5 2.5 7 4s4.5 3 7 4.5s6 3 8.5 5s6 3.5 8.5 6s5 6 6.5 7.5s6 1 4.5 1.5s-10.5 1-14.5 1s-6.5.5-10 .5s-6 .5-8.5.5s-5.5 0-8.5 0s-5.5-.5-8.5-1s-5.5-1-8.5-1.5s-5-1-7.5-2s-5.5-1-8-2s-5-2-7.5-2.5s-5.5-2-8-3.5s-6-2.5-8.5-4s-4.5-3-7-5s-4.5-3.5-6.5-6s-6-7.5-7.5-9s0 0 0 0z"/><path class="wash deep" fill-rule="evenodd" style="--dl:.009;--dh:-9.7;--dc:.99" d="M678.5 87.5c1-.5 4.5-2 7-2.5s5 .5 7 .5s3.5 0 5 0s3 .5 4.5.5s2.5.5 4 1s3 0 4.5.5s3.5 0 4.5.5s2 1.5 3 2s2 1 3.5 2s4 1 6 1.5s4.5 2 6 3s3.5 1.5 5.5 3s5 2.5 6.5 4s3 3.5 3.5 4.5s-1-1-2.5-1s-6.5.5-8.5.5s-1.5 1-3 1.5s-4.5-.5-6.5-.5s-4-.5-5.5-1s-3 0-5-.5s-3.5-1-5-1.5s-3-1-4-1.5s-2 .5-3.5.5s-2.5 0-4-.5s-3-1.5-4.5-2s-2.5-1.5-4-2.5s-3.5-1.5-5-2.5s-2-2-3.5-3.5s-3-4.5-4-5.5s-1.5-.5-2-.5z"/><path class="ink thin" d="M664 82c1.5-.5 6.5-3.5 10-4s6-1.5 8.5-1.5s6-.5 9-.5s5.5 0 8.5 0s5.5.5 8 1s5.5 1 8.5 2s5 1.5 8 2s5 2 7.5 3s5 2 7.5 3.5s5.5 2.5 7.5 4s5 3 7.5 4.5s5 3.5 7.5 5s4.5 3.5 7 6s4.5 6 6.5 7s3.5 1.5 4.5 1.5m-110-24.5c-1-1.5-5-7.5-6-9s0 0 0 0"/><path class="ink thick" d="M780 115.5c-2.5.5-10 1-14 1.5s-6 .5-9 1s-5.5 0-8.5 0s-5.5 0-8.5 0s-5.5-.5-8.5-.5s-5.5-1-8-1.5s-5.5-1-8.5-1.5s-5-1.5-8-2.5s-5-1.5-7.5-2.5s-5-2.5-7.5-3.5s-5-3-7.5-4.5s-5-3-7.5-4.5s-5.5-5-7-6"/><path class="wash shine" d="M680.5 87c6.5-.5 26-2.5 36.5-1s26.5 9 27 11s-13.5 2.5-24 1s-33-9.5-39.5-11z"/><path class="ink mid" d="M664 82c3 1 12.5 3.5 18.5 5.5s12.5 3.5 18.5 5s12.5 3.5 19 5.5s12 3.5 18.5 5s12 4 18.5 5.5s15.5 5 18.5 5.5"/><path class="wash" fill-rule="evenodd" style="--dl:-.044;--dh:2.9;--dc:.89" d="M665 85c.5 1.5 2.5 7.5 3 10.5s1 5.5 1 8.5s.5 5.5 0 8.5s-1.5 6.5-2.5 9.5s-2 6-3 9s-2.5 5.5-3.5 8.5s-3 5.5-4.5 8s-3 5-5 7.5s-3.5 5-5.5 7.5s-4 4.5-6 6.5s-4 3.5-6.5 5.5s-4 4-6.5 6s-5.5 4.5-8 7s-8 3.5-10 5.5s-3 6.5-3 5s1-9 1.5-13s1-6.5 1.5-9.5s1.5-6.5 2-9.5s1-5.5 1.5-8s1.5-6 2.5-9s2-5.5 3.5-8.5s2-5.5 3.5-8.5s3-5 4.5-7.5s3-4.5 5-7s3-4.5 5-7s3.5-5.5 5.5-7.5s4.5-5 6.5-7s4-3.5 7-5.5s8.5-4.5 10.5-5.5s0 0 0 0z"/><path class="wash deep" fill-rule="evenodd" style="--dl:-.044;--dh:2.9;--dc:.89" d="M657.5 98c.5 1.5 2 5 2 7.5s-1 5-1.5 7s-.5 3.5-.5 5s0 3.5-.5 5s-1 3.5-2 5s-1.5 2.5-2.5 4s-1.5 3-2 4s-2 1.5-3 2.5s-1.5 1-2.5 2.5s-1.5 4-3 6s-3 4.5-4 6s-2.5 1.5-4 3s-2.5 2-4.5 3.5s-5 4-6.5 5s-1 3-1 2s.5-5 0-6.5s-1.5-1.5-1-3s1-4.5 2-7s3-5.5 4-8s1.5-3.5 2-5s1.5-3 2-4.5s2-3 2.5-4.5s1-2.5 1.5-4s1-2.5 2-4s2.5-2 3.5-3.5s2-1.5 3-3s1.5-3 3-5s2.5-3.5 4-5s5.5-2.5 6.5-3.5s.5-1 .5-1.5z"/><path class="ink thin" d="M603.5 196.5c.5-2.5 1.5-10.5 2-14s1-6.5 1.5-9.5s1-6 1.5-9s1.5-5.5 2.5-8.5s1.5-5.5 2.5-8.5s2-5.5 3-8.5s2.5-5 3.5-8s2.5-5 4-8s3-5 5-7.5s3-5 5-7.5s3.5-4.5 6-7s4-4.5 6.5-7s4-4.5 7-6s9-4.5 10.5-5.5s0 0 0 0"/><path class="ink thick" d="M664 82c.5 2 2.5 7.5 3 11s.5 6.5 0 10s-.5 6-1 9s-1 6-2 9s-1.5 5.5-2.5 8.5s-2 5.5-3.5 8s-2.5 5.5-4 8s-3 5-5 7.5s-3.5 5-5 7.5s-4 4.5-6.5 7s-4 4.5-6.5 6.5s-4.5 4.5-7 6.5s-5 4.5-8 6.5s-8 3.5-10 5s-2 3.5-2.5 4.5"/><path class="wash shine" d="M656.5 99c-1 6.5-2.5 27.5-6.5 38s-15 26-17.5 26s.5-14.5 4.5-25s16-32.5 19.5-39z"/><path class="ink mid" d="M664 82c-1.5 3.5-5.5 12.5-8.5 19s-6 12.5-9 18.5s-6.5 12.5-9.5 18.5s-6.5 12-10 18.5s-6.5 12-10 18s-9 14.5-11 17.5"/><path class="wash" fill-rule="evenodd" style="--dl:-.037;--dh:7.1;--dc:1.11" d="M699.5 134c2.5 0 9 .5 12.5 2s7.5 3.5 10.5 5s5.5 3 8 4.5s5.5 3 8 4.5s4.5 3.5 7 5.5s5 3.5 7 6s5 4 7 6.5s4 5 5.5 7.5s3.5 5.5 5.5 8s3.5 5.5 5.5 8.5s3.5 6 4.5 9s3 6 4 9s2.5 6.5 3.5 10s.5 8 1 10s4 2.5 2 2s-10-5-14-6.5s-5.5-2-8-3s-5.5-3-8.5-4.5s-5.5-3.5-8-5.5s-5.5-3-8-5s-4.5-4-7-6s-4.5-4-7-6.5s-4.5-4-7-6.5s-4.5-5-6.5-7.5s-3.5-5.5-5.5-8s-2.5-5.5-4-8.5s-3-6-4-9s-2-5.5-2.5-9s-.5-9.5-.5-12s-.5-.5-1-.5z"/><path class="wash deep" fill-rule="evenodd" style="--dl:-.037;--dh:7.1;--dc:1.11" d="M711 146.5c1 0 4.5-1 7 0s4.5 3 6.5 4s3.5 3.5 5.5 4.5s2.5 2 4 3s2.5 1.5 4 3s2 2 3 3s2.5 2.5 3.5 3.5s2.5 2.5 3.5 4s0 2 1 3.5s1.5 2 3 4s4.5 4.5 6 7s3 4.5 4 6.5s1.5 3.5 2.5 6s1.5 6.5 2 8s2.5 1.5.5.5s-8-5.5-10.5-7s-2.5-.5-4-1s-2.5 0-4.5-1.5s-4-3.5-6-5.5s-3.5-3-5-4.5s-2.5-2.5-3.5-3.5s-2.5-3-3.5-4s-2-2-3-3s-2.5-1.5-4-2.5s-2-2.5-3-4s-1.5-3-2-4.5s-2-3.5-3-5.5s-2-3.5-2.5-6s-.5-6-1-7s-.5-1-.5-1z"/><path class="ink thin" d="M698.5 132c2 .5 8.5 1 12 1.5s6.5 2.5 9.5 4s6 3 8.5 4.5s5.5 3.5 8.5 5.5s5 4 7 6s5 4 7 6s4.5 4.5 6.5 7s4 5 6 7.5s3.5 5 5.5 7.5s4 7 5 8.5m14 38.5l3.5 3.5m-69-45.5c-1-1-4-4.5-5.5-7s-4-5.5-5.5-8s-3.5-5.5-5-8.5s-2.5-6-4-9s-2.5-6-3.5-9.5s-.5-10.5-.5-12.5s0 0 0 0"/><path class="ink thick" d="M774 190c.5 1.5 3 5.5 4 8.5s3 6 4.5 9s2.5 6.5 3.5 10s1.5 9 2 11m3.5 3.5c-2.5-1-10.5-4.5-14.5-6.5s-6-3-9-4.5s-6-3-8.5-4.5s-5.5-3.5-8.5-5s-5-3.5-7.5-5.5s-5-4-7.5-6s-4.5-4.5-7-6.5s-5.5-5.5-6.5-7"/><path class="wash shine" d="M712 146.5c6 3.5 26 13 35.5 20.5s20.5 24 20 26.5s-15-5.5-24-13.5s-26.5-28-31.5-33.5z"/><path class="ink mid" d="M698.5 132c2.5 3 10 11 15 16s10 10.5 15 16s10 10.5 15 16s9.5 10.5 14.5 16s10 11 15 16s12.5 13.5 15 16.5"/><path class="wash" fill-rule="evenodd" style="--dl:-.005;--dh:5.4;--dc:1.11" d="M700 134c1 1 6 5 8 7.5s3.5 6.5 5 9.5s2.5 7 3.5 10.5s2 6.5 2.5 9.5s1.5 6.5 2 9.5s.5 6 1 9s.5 6 .5 9s1 6 .5 9.5s0 6-.5 9.5s-1 6-1.5 9s-1 7-2 10s-1.5 7-2.5 10s-2 6.5-3.5 10s-4.5 9-5.5 11.5s1.5 7.5.5 5.5s-5-12.5-7-17s-3-7-4.5-10.5s-2.5-5.5-3.5-8.5s-2-6.5-3-9.5s-1.5-6-2.5-9s-1.5-6-2-9s-1-6-1-9.5s0-5.5 0-9s-.5-6-.5-9.5s0-6.5.5-10s.5-6.5 1.5-10s1.5-7 2.5-10s2-7.5 3.5-10.5s6.5-7 7.5-8.5s.5 1 .5 1z"/><path class="wash deep" fill-rule="evenodd" style="--dl:-.005;--dh:5.4;--dc:1.11" d="M700.5 157c.5 1 2.5 4.5 3.5 6s1.5 2 2.5 3s2 2 3 3s1.5 3.5 2 5s.5 3.5.5 5.5s1 3.5 1.5 5.5s.5 3.5.5 5.5s-.5 3.5-.5 5.5s.5 4.5.5 7s0 5-.5 6.5s-2 1.5-2.5 2s-1.5.5-2.5 1.5s-1 3.5-1.5 5s-2.5 2.5-3 3.5s1 3 0 2.5s-2-2.5-3-4s-2-3-2.5-5s-1-6-1.5-7.5s-1-2-2-3s-1.5-1-2-2s-1.5-3-1.5-5s-1-3-1.5-5s-.5-3.5-.5-5.5s.5-4.5 1-6s1-3.5 1.5-5.5s0-3.5.5-5.5s.5-4 1.5-5.5s1.5-2.5 2.5-4s3-3.5 3.5-4.5s.5 1 .5 1z"/><path class="ink thin" d="M698.5 132c1.5 1.5 6 6 8 9s4 7.5 5 9m-5 118.5c-1-2.5-5-10-7-14s-3-6-4.5-9.5s-2.5-6-3.5-9s-2-6-3-9s-2-6.5-2.5-9.5s-1.5-6-2-9s-1-6.5-1.5-9.5s-.5-6.5-.5-9.5s0-6 .5-9.5s.5-6 .5-9.5s1-6 2-9.5s1.5-6 2.5-9.5s2-6.5 3.5-9.5s6-8 7.5-10s0 0 0 0"/><path class="ink thick" d="M711.5 150c.5 1.5 2.5 6.5 3.5 9.5s2 6 3 9s1.5 6.5 2 9.5s1 6 1.5 9s.5 6.5.5 9.5s0 6.5-.5 9.5s0 6.5-.5 9.5s-1 6.5-1.5 9.5s-1 6.5-2 9.5s-1.5 6.5-2.5 9.5s-2 6.5-3.5 9.5s-4.5 7.5-5.5 10s.5 4.5.5 5"/><path class="wash shine" d="M699.5 152c2.5 6.5 12 26.5 14 38.5s1 32-1 33s-8-14-10-25.5s-2.5-38.5-3-46z"/><path class="ink mid" d="M698.5 132c0 4 1 14.5 1 22s1 14.5 1.5 22s1 14.5 1.5 22s.5 14.5 1 21.5s1 14.5 1.5 22s1 18 1 22"/></g><g class="gp" data-g=".74" data-o="347.5 -42"><path class="ink mid" d="M347.5-42c30 40 12 70 22 120"/><path class="ink thin" d="M369.5 78q-33 7-66 20"/><path class="ink thin" d="M369.5 78q-11 10-22 38"/><path class="ink thin" d="M369.5 78q12 8.5 24 28"/><path class="ink thin" d="M369.5 78q33 5.5 66 10"/><path class="ink thin" d="M369.5 78q-22 16-44 78"/><path class="ink thin" d="M369.5 78q3 17 6 86"/><path class="ink thin" d="M369.5 78q25 14.5 50 68"/><path class="ink thin" d="M369.5 78q-5 24-10 134"/></g><g class="gp" data-g=".8" data-o="435.5 86.5"><path class="wash" fill-rule="evenodd" style="--dl:-.021;--dh:2.3;--dc:.91;--pc:var(--fruit-blushing)" d="M460.5 116c0 1-.5 3.5-.5 5.5s-.5 3.5-1 6s.5 4.5 0 6.5s-2 4-3.5 5.5s-3 2.5-4.5 4s-3 4-4.5 5.5s-4.5 1-6.5 1s-4 0-6-.5s-4-.5-6-1s-4.5-1.5-6-3s-2-4.5-3-6.5s-1.5-4-2.5-6s-2-3-2.5-5s0-4.5 0-6.5s0-3.5 0-5.5s-.5-4 0-5.5s.5-4 1.5-5.5s2-3 3-4.5s2-3 2.5-5s2-4 3.5-5s3-1 5-2s3-2 5-2.5s3.5-.5 5.5 0s3.5 1 5 2s2.5 3 4 4s3 1.5 4.5 3s2.5 2.5 3.5 4.5s.5 4 1 6s1.5 3 2 5s.5 4.5.5 5.5z"/><path class="wash deep" fill-rule="evenodd" style="--dl:-.021;--dh:2.3;--dc:.91;--pc:var(--fruit-blushing)" d="M452 120c0 .5-.5 2-.5 3s0 2 0 3s.5 3 .5 4s-1.5 2.5-2.5 3.5s-2 1-3 2s-1.5 2.5-2.5 3.5s-2.5 1.5-3.5 1.5s-3 0-4 0s-3 0-4.5-.5s-3-1-3.5-2s-.5-3.5-.5-5s0-2.5-.5-4s-2-1.5-2.5-2.5s.5-2.5.5-3.5s0-2.5 0-3.5s0-2.5 0-3.5s1-1.5 1.5-2.5s2-1 2.5-2s0-2.5 0-4s0-4 .5-5s2.5-.5 3.5-1s2-1.5 3-1.5s2.5-1 3.5-.5s2.5 1.5 3.5 2.5s1.5 2 2.5 2.5s2 0 3 .5s1.5 2 2 3.5s-.5 3.5-.5 5s1 2 1 3s.5 3 .5 3.5z"/><path class="ink thin" d="M421 143c-.5-1-2.5-3.5-3.5-5.5s-1.5-4-2.5-6s-2.5-3-3-5s-.5-4.5 0-6.5s0-4 0-6s.5-3.5.5-5.5s0-4 1-6s2-2.5 3-4s2-3 3-5s2-3.5 3.5-4.5s3.5-1 5-1.5s3.5-1 5-1.5s3.5-1 5.5-.5s3.5 0 5 1s2.5 3 4 4s3 1.5 4.5 3s3 3.5 3.5 4"/><path class="ink thick" d="M460 114c0 1 0 4-.5 6s-1 3.5-1.5 5.5s0 5-.5 7s-2 3.5-3.5 5.5s-3 2-4.5 3.5s-3 3.5-5 5s-3.5 1-6 1.5s-4-.5-6-.5s-3.5-1.5-5.5-2s-5-2-6-2.5m34.5-45.5c0 1 .5 4 1 6s2 3 2.5 5s1 4.5 1 5.5"/><path class="ink hair bumps" d="M423 118.5q2.5-3 4.5 0m6 5.5q2.5-3.5 4.5 0m2.5-2q1.5-3 3.5 0m-21-8q2-3 4 0m7.5-10q1.5-3 3.5 0m-12.5 21q1.5-2.5 3.5 0m11-11q2.5-3.5 4.5 0m-12.5-9.5q2-2.5 4 0m11 14q2-3 4 0m-3.5 3.5q2-3.5 4.5 0m-22-26.5q2.5-3 4.5 0m-16.5 18.5q2.5-3.5 4.5 0m25-8q2.5-3.5 5 0m-15.5-1.5q2-2.5 3.5 0m-6 28q2-3.5 4.5 0m-.5-18.5q2.5-3.5 4.5 0m-8-6q1.5-2.5 3.5 0m-11.5 12.5q2-3.5 4.5 0m9 12q2.5-3.5 5 0m-29.5-27q2-2.5 3.5 0m23.5 4q1.5-2.5 3.5 0m3 5q2-3.5 4.5 0m-31 .5q2-3.5 4.5 0m16.5-.5q2-2.5 3.5 0m-12.5 6.5q2-3 4 0m-22-5q2-3 4 0m29-5.5q2.5-3.5 5 0m-31.5 8.5q1.5-2.5 3.5 0m-2.5-5.5q2-3 4 0m15.5-12q2-3.5 4 0m-1 7q2.5-3 4.5 0m-8.5 6q2.5-3.5 5 0m-2-14.5q2-3 4 0"/><path class="wash shine" d="M431 103c0 .5-.5 2-1 2.5s-2.5 1-4 1s-2.5-.5-3.5-1s-1.5-1.5-1.5-2.5s1-2 1.5-2.5s2.5-1 3.5-1s3 .5 4 1s1 2 1 2.5s0 0 0 0z"/></g><g class="gp" data-g=".82" data-o="303.5 95"><path class="wash" fill-rule="evenodd" style="--dl:.006;--dh:4;--dc:.89;--pc:var(--fruit-lychee)" d="M329.5 126c.5 1 2 4 2 6.5s-.5 4.5-1.5 6.5s-2 3.5-3 5.5s-1.5 4.5-2.5 6.5s-2.5 3.5-4.5 5s-3.5 3-5.5 3.5s-4 .5-6.5 1s-4 1.5-6 1s-4-2.5-6-4s-3-2.5-4.5-4s-4-2-5-3.5s-2.5-3.5-3.5-5.5s-1.5-4.5-1.5-6.5s-.5-4-1-6s-1.5-4-1-6s1.5-4 2-6s.5-4 .5-6s.5-4.5 1.5-6s2.5-3.5 4-4.5s3-2.5 4.5-3.5s3.5-2 5-2.5s3.5-2 5.5-2s3.5 2 5 2s4 0 5.5 0s3.5 1.5 5 2.5s2 3.5 3 5.5s2.5 3 3.5 4.5s2 3 2.5 4.5s2 3.5 2.5 5.5s0 5 0 6z"/><path class="wash deep" fill-rule="evenodd" style="--dl:.006;--dh:4;--dc:.89;--pc:var(--fruit-lychee)" d="M323 128.5c0 .5.5 3 0 4.5s-1 2.5-1.5 4s-.5 2.5-1.5 3.5s-1 2.5-1.5 3.5s-2 2-3 3s-2 2-3 2.5s-2.5-.5-4-.5s-2-.5-3-1s-2-.5-3-1s-2.5-.5-3.5-1s-2.5-1-3.5-2s-2-2-2.5-3.5s-1.5-2.5-2-3.5s.5-3 .5-4s-.5-2.5-.5-3.5s-.5-3-.5-4.5s0-3 0-4.5s1.5-2 2.5-3s2-1 3-1.5s2.5-1 3.5-1.5s2.5.5 3.5.5s2-1 2.5-1.5s2-.5 3-1s2 .5 3 1s2 1.5 2.5 2.5s1.5 1 2.5 2s1 1 2 2s1 1.5 2 2.5s2 1.5 2 2.5s.5 3 .5 3.5z"/><path class="ink thin" d="M284.5 148.5c-.5-1-2.5-3.5-3.5-5.5s-1-4.5-1.5-6.5s0-4.5-.5-6.5s-1.5-4-1.5-6s1.5-4 2-5.5s1.5-4 2-6s.5-4 1.5-5.5s2.5-3.5 3.5-4.5s3-2.5 4.5-3.5s3-2 4.5-3s3.5-2.5 5.5-3s3.5 2 5.5 2.5s3.5 0 5 .5s4 1 5.5 2s2.5 3 3.5 4.5s2 3.5 3 5s2.5 4 3 5"/><path class="ink thick" d="M328 124c0 1 1 4.5 1 6.5s0 4-1 6s-1.5 4-2.5 6s-1.5 4-3 6s-2.5 4-4 5.5s-3.5 2.5-5.5 3.5s-4 0-6 .5s-4.5 2-6.5 2s-4.5-1.5-6-2.5s-3.5-3-5-4.5s-4-3.5-5-4.5m42-36c.5 1 2 3.5 2 5.5s-.5 5-.5 6"/><path class="ink hair bumps" d="M316.5 123.5q2.5-3 4.5 0m-17.5 11.5q1.5-2.5 3.5 0m-5 6.5q2.5-4 5 0m-19-31q2-3.5 4.5 0m14.5 32.5q2-2.5 3.5 0m-17-14.5q2.5-3.5 5 0m-6.5-7q2-3.5 4.5 0m2 10q2.5-3.5 5 0m16 .5q2.5-3.5 5 0m-11 8q1.5-2.5 3.5 0m-19.5 1q2-3 4 0m-9-5q2-3.5 4.5 0m7.5 3.5q1.5-2.5 3.5 0m-7-15q2-2.5 4 0m-23.5-2q2.5-3.5 4.5 0m28.5 19q2.5-4 5.5 0m-19-19.5q2-3.5 4.5 0m-20.5 9q2.5-3.5 5 0m21.5 12.5q2-3 4 0m-17-13q1.5-2.5 3.5 0m14-20.5q2-3 4 0m-29 4.5q2-3.5 4 0m21 12q2-3 4 0m-13.5-8.5q2.5-3.5 5 0m-15-6q2-3 4.5 0m-8.5 2q1.5-3 3.5 0m-14.5 11.5q2-3 3.5 0m27.5-15q3-4 5.5 0m-35 16.5q2-3.5 4 0m4.5.5q2-3.5 4.5 0m11.5-9.5q2.5-3.5 5 0m-17.5 22.5q2.5-3 4.5 0"/><path class="wash shine" d="M299 112.5c0 .5-.5 2-1.5 2.5s-2.5 1-3.5 1s-3-.5-4-1s-1.5-1.5-1.5-2.5s.5-2 1.5-2.5s2.5-1 4-1s2.5.5 3.5 1s1.5 2 1.5 2.5s0 0 0 0z"/></g><g class="gp" data-g=".84" data-o="393.5 102"><path class="wash" fill-rule="evenodd" style="--dl:-.03;--dh:4.4;--dc:.95;--pc:var(--fruit-lychee)" d="M422.5 134c0 1-.5 4.5-1 6.5s-1 4-1.5 6s-1 4.5-1.5 7s-2.5 4-3.5 6s-3 3.5-4.5 5s-4 1.5-6 2.5s-4 2.5-6 2.5s-4.5-.5-6.5-1s-4-1-6.5-1.5s-4-1-6-2s-3-3.5-4.5-5.5s-2.5-4-3.5-6s-1-4.5-1.5-6.5s-2-4.5-2-6.5s1-4.5 1-6.5s0-4.5 0-6.5s.5-4.5 1.5-6s2.5-3.5 3.5-5s2.5-3 4-4.5s2.5-2.5 4-3.5s3-3 5-3.5s3.5 0 5.5-.5s3.5-1.5 5.5-1.5s3.5.5 5.5 1.5s3 2.5 4.5 4s3 2 4.5 3s2.5 3 4 4.5s2.5 3.5 3 5.5s.5 4 1 6s2 5.5 2 6.5z"/><path class="wash deep" fill-rule="evenodd" style="--dl:-.03;--dh:4.4;--dc:.95;--pc:var(--fruit-lychee)" d="M413.5 137c0 1-.5 3-1 4.5s-.5 2.5-1 3.5s-.5 3-1 4s-1 2.5-2 3.5s-1.5 2.5-2.5 3s-2.5.5-3.5.5s-2 1-3.5 1s-2.5.5-3.5.5s-3 0-4 0s-3-.5-4-1s-3-2-4-3s-1.5-2.5-2-4s0-3 0-4s-1.5-2.5-1.5-4s-.5-3.5-.5-4.5s0-3 .5-4s1-2.5 1.5-3.5s2-1.5 3-2.5s2-.5 3-1s2.5-.5 3-1s1.5-2.5 2-3.5s2-1 3-1.5s2 0 3 0s2.5.5 3.5 1s1.5.5 2.5 1.5s2 1 3 1.5s1.5 1.5 2.5 2s2 1 2.5 2s.5 3 .5 4.5s.5 4 .5 4.5z"/><path class="ink thin" d="M378 163.5c-.5-1-3-4-4-6s-2-4-3-6.5s-1.5-4-2.5-6s-1.5-4-1.5-6.5s1-4 1.5-6.5s0-4 0-6s0-4.5 1-6s2.5-3.5 3.5-5s2-3.5 3.5-5s2-3.5 3.5-4.5s3.5-3 5-3.5s4 .5 6 .5s3.5-2 5.5-2s4 .5 5.5 1.5s3 3 4.5 4.5s3.5 2 5 3s3 4 3.5 5"/><path class="ink thick" d="M420.5 132c0 1-.5 4.5-.5 6.5s-1.5 4-2 6s0 5-1 7.5s-2 4-3.5 5.5s-3 3.5-4.5 5s-4 2-6 3.5s-4 3.5-6 3.5s-4.5-1-6.5-1.5s-4.5-1.5-6.5-2s-5-2-6-2.5m37-49c.5 1 1.5 3.5 2.5 5.5s0 4 .5 6s2 5 2.5 6"/><path class="ink hair bumps" d="M378.5 151q2-2.5 3.5 0m17-7.5q2.5-4 5 0m-7.5 13q2-3 4 0m-23-11.5q2.5-3.5 5 0m-3.5-18q2-3 4 0m-7 7q2-3 3.5 0m26.5.5q2-3 4 0m-11 12q2.5-3.5 4.5 0m8-14q3-4 5.5 0m-26.5 13q2.5-3.5 4.5 0m-16.5 1q2.5-3.5 4.5 0m20.5-18.5q2.5-3.5 4.5 0m-20.5 21.5q2.5-4 5 0m-1.5 6.5q1.5-3 3.5 0m-1.5-41q2.5-3.5 4.5 0m8.5 33q2.5-4 5 0m-33-26q2.5-3.5 4.5 0m12.5 5q2.5-4 5 0m-9-1.5q2.5-4 5 0m12 16q2.5-4 5 0m-20-8q3-4.5 5.5 0m2 11q2.5-4 5.5 0m-24.5-9q3-4 5.5 0m-10.5-3.5q2-3.5 4 0m23 21.5q2-3 4 0m-22-39q2.5-4 5 0m1.5 17q2.5-4 5.5 0m2.5 15q2.5-4 5 0m-7 9.5q2.5-4 5.5 0m5-39.5q1.5-3 3.5 0"/><path class="wash shine" d="M389 120c-.5.5-1 2-1.5 2.5s-3 1-4 1s-3-.5-4-1s-1.5-1.5-1.5-2.5s.5-2 1.5-2.5s2.5-1 4-1s3 .5 4 1s1 2 1.5 2.5s0 0 0 0z"/></g><g class="gp" data-g=".86" data-o="347.5 114"><path class="wash" fill-rule="evenodd" style="--dl:-.009;--dh:-3.4;--dc:1.02;--pc:var(--fruit-lychee)" d="M375 144c-.5 1-1 4-1.5 6s-1.5 3.5-2 5.5s0 4.5-1 6.5s-2.5 3-3.5 5s-3 3-4 4.5s-3.5 3-5 4s-4 2-6 2s-4-1-6-1.5s-3.5-1-5.5-1.5s-4.5 0-6-1.5s-2.5-3.5-4-5.5s-2.5-3.5-3.5-5s-2-4-2.5-6s-.5-4.5-.5-6.5s1-4 1.5-6s0-4 0-6s0-4 1-6s2.5-2.5 3.5-4s2-3 3-4.5s2.5-2.5 4-3.5s3-1.5 4.5-2s3.5-.5 5-1s3.5-2 5-2s4 0 5.5 1s2.5 3 4 4s3.5 1.5 5 2.5s2 3 3 5s1.5 3.5 2 5s1.5 3.5 2 5.5s1.5 5 2 6z"/><path class="wash deep" fill-rule="evenodd" style="--dl:-.009;--dh:-3.4;--dc:1.02;--pc:var(--fruit-lychee)" d="M367 146.5c0 .5 0 3-.5 4s-1 2.5-1 4s-.5 3-1 4s-2 2-3 2.5s-1.5 2-2.5 2.5s-2 2.5-3 3s-2.5 1-3.5 1s-2-1-3-1.5s-2-1-3-1.5s-2.5-.5-3-1.5s-1-2-2-3s-2.5-1-3.5-2s-2.5-2-3-3.5s0-2.5 0-3.5s.5-2.5 1-4s-.5-2.5-.5-4s0-2.5.5-3.5s1.5-2 2-3s.5-3 1.5-4s2-1 3-1s3 1 4.5 1.5s2 0 2.5 0s2-1 3-1.5s2 .5 3 1s1 1.5 2 1.5s2 0 3 1s1 2 1.5 3.5s.5 2 1 3s1.5 1 2 2s1.5 2.5 2 3z"/><path class="ink thin" d="M333 171.5c-.5-1-2.5-4-3.5-6s-2-4-3-5.5s-1.5-4-2-6s-1.5-4-1.5-6s1-4 1-6s.5-3.5.5-5.5s0-4 .5-6s2.5-2.5 3.5-4s2-3.5 3-5s2.5-3 3.5-4.5s3-2 5-2.5s3.5 0 5-.5s3.5-1 5.5-1s3.5 0 5 1s2.5 3.5 4 4.5s3.5 1.5 4.5 2.5s3 4 3.5 4.5"/><path class="ink thick" d="M372.5 142c0 1 0 4-.5 6s-1.5 3.5-2 5.5s0 5-.5 7s-2 3.5-3.5 5s-3 3-4.5 4.5s-3 2.5-5 3.5s-3.5 3-5.5 3s-4.5-.5-6.5-1s-3.5-1.5-5.5-2.5s-5-1.5-6-1.5m34.5-46c0 1 1.5 3.5 2 5.5s.5 3.5 1 5.5s1.5 4.5 2 5.5"/><path class="ink hair bumps" d="M334 147.5q2.5-3.5 5 0m21 3q2-3 4 0m-32.5-2q2-3 3.5 0m3.5-12.5q2.5-3.5 4.5 0m8.5 14q2-3 4 0m-5.5 8.5q2-3 4 0m-6.5-26.5q2-3 4 0m-25 8.5q2.5-3.5 5 0m24.5-16q2-3.5 4.5 0m-12.5 7.5q2.5-3.5 5 0m7.5 7q2-3 4 0m-27 19.5q2-3 4 0m6-32q2-3.5 4 0m-14.5 13q2-3 4.5 0m-13 15.5q2.5-3.5 5 0m7-5.5q2.5-3.5 5 0m0-2.5q2-3 4 0m-11.5-8q1.5-2.5 3 0m10 25q2-3.5 4.5 0m-24.5-24.5q2-3 4 0m-3-11q2-3.5 4.5 0m14.5 36.5q2.5-3.5 5 0m-15-28q2-3.5 4.5 0m18.5 9.5q2-3.5 4.5 0m-8-5.5q2.5-3.5 4.5 0m-11 5q2-3 4 0m.5 2q2.5-3.5 4.5 0m-26-25.5q2-3 4.5 0m9.5 17q2.5-3.5 4.5 0m6-7q2.5-4 4.5 0m-3 4.5q2-3.5 4 0"/><path class="wash shine" d="M343 131c0 .5-.5 2-1.5 2.5s-2 1-3.5 1s-2.5-.5-3.5-1s-1.5-1.5-1.5-2.5s1-2 1.5-2.5s2.5-1 3.5-1s3 .5 3.5 1s1.5 2 1.5 2.5s0 0 0 0z"/></g><g class="gp" data-g=".88" data-o="419.5 141"><path class="wash" fill-rule="evenodd" style="--dl:.02;--dh:.1;--dc:.9;--pc:var(--fruit-lychee)" d="M450 174c0 1-1.5 4.5-2 6.5s-1.5 4-2 6.5s-.5 4.5-1 7s-2.5 4-4 5.5s-3 3-5 4.5s-3 3.5-5 5s-4.5 3-6.5 3s-4.5-2-6.5-2.5s-4.5-.5-6.5-1s-5-.5-7-2s-3-4-4.5-6s-2-4-3.5-6s-2-4.5-2.5-6.5s-1-5-1-7s2-5 2-7s-1-4.5-.5-6.5s.5-4.5 1.5-6.5s3-3 4-4.5s2-3.5 3.5-5s2.5-3.5 4-4.5s3.5-1.5 5.5-2s3.5 0 5.5-1s3.5-3 5.5-3.5s4 1.5 6 2.5s3 3 4.5 4s3.5 2 5 3s3 3 4 5s1.5 4.5 2 6.5s1 4 2 6s2.5 5.5 2.5 6.5z"/><path class="wash deep" fill-rule="evenodd" style="--dl:.02;--dh:.1;--dc:.9;--pc:var(--fruit-lychee)" d="M442 176.5c-.5 1-1 3.5-1.5 5s-1.5 2.5-2 4s-.5 3-1 4.5s-1 2.5-2 3.5s-2.5 1.5-3.5 2.5s-2 1.5-3 2.5s-2.5 2-4 1.5s-2-2-3-3s-2-.5-3.5-.5s-3 0-4.5-.5s-2.5-1.5-3.5-2.5s-1.5-2.5-2-4s-2-2.5-2.5-3.5s-1.5-3-1-4.5s2-2.5 2-4s-1-3-1.5-4.5s-1-4-.5-5s2.5-2 3.5-2.5s2.5-1 3.5-1.5s2-2 3-2s2.5-.5 3.5 0s2.5 1 3.5.5s2-3 3-3.5s2 0 3 .5s2 3 2.5 4s2 1 3 1.5s2 1 2.5 1.5s1 2.5 1.5 3.5s1 2 1.5 3s2.5 3 3 3.5z"/><path class="ink thin" d="M403.5 204.5c-.5-1-3-4.5-4-6.5s-2.5-4-3.5-6s-2-4.5-2.5-6.5s-1.5-4.5-1.5-6.5s1.5-4.5 1.5-7s-.5-4-.5-6.5s1-4 2-6s2.5-3.5 3.5-5s2-4 3-5.5s2.5-3.5 4-5s3.5-2 5.5-2.5s4 0 6 0s4-2.5 5.5-2.5s4 1.5 6 2.5s3 2.5 4.5 4s3.5 2 5 3s3 4.5 3.5 5"/><path class="ink thick" d="M447.5 172c0 1-1 4.5-1.5 6.5s-.5 4.5-1 7s0 5-1 7s-2.5 4-4 6s-3 3-5 4.5s-3.5 3-5.5 4.5s-4 3-6.5 3.5s-4.5-2-6.5-2.5s-4.5 0-7-1s-5-2.5-6-3m38-51c.5 1 1.5 4.5 2.5 6.5s.5 4 1 6s2 5 2.5 6"/><path class="ink hair bumps" d="M420.5 167.5q2-2.5 4 0m-3.5-17.5q2.5-3 4.5 0m-13.5 23q2.5-4 5.5 0m11.5 8q2-3.5 4.5 0m-27.5 0q1.5-3 3.5 0m23.5-2q3-4.5 5.5 0m-9-19q2.5-3.5 4.5 0m-20.5 18.5q2.5-3.5 5 0m-9.5 7.5q2-3.5 4 0m-5 1.5q3-4 5.5 0m-13.5-23q2.5-3.5 4.5 0m17.5 2.5q2-3 4 0m4.5 1.5q2-2.5 4 0m-21.5-12.5q2.5-3.5 4.5 0m-5.5 13.5q2.5-4 5.5 0m14.5-4q2-3 4 0m-38 9.5q2.5-3.5 4.5 0m32-6.5q2-3 3.5 0m-2-5q3-4 5.5 0m-38.5 13q2.5-3 4.5 0m.5-11q2-3 4 0m0-12.5q2.5-4 5 0m19 10q3-4 5.5 0m-42.5 19.5q3-4 5.5 0m14.5-12.5q2.5-3.5 5 0m-21 9q2.5-4 5 0m-7.5-4.5q2-3.5 4.5 0m9-15q2.5-3.5 4.5 0m19 8q2.5-3 4.5 0m-12.5-9q3-4 5.5 0m-5 22.5q1.5-2.5 3.5 0"/><path class="wash shine" d="M414.5 159.5c0 .5-.5 2-1.5 3s-2.5 1-4 1s-3-.5-4-1s-1.5-2-1.5-3s.5-2 1.5-2.5s3-1 4-1s3 .5 4 1s1.5 2 1.5 2.5s0 0 0 0z"/></g><g class="gp" data-g=".9" data-o="325.5 153"><path class="wash" fill-rule="evenodd" style="--dl:-.01;--dh:-4.2;--dc:1.13;--pc:var(--fruit-lychee)" d="M353.5 184c0 1 0 4-.5 6s-1.5 4-2.5 6s-1.5 4-2 6s-1 5-2 6.5s-3.5 2.5-5.5 3.5s-3 3-5 4s-3.5 2.5-5.5 3s-4.5-1-6.5-1.5s-4-1.5-6-2s-4-1-5.5-2s-4-2-5.5-4s-1-5-2-7s-2.5-3.5-3-5.5s-1-4.5-1-6.5s1-4.5 1.5-6.5s0-4 .5-6s0-4 1-6s1.5-4 2.5-5s3.5-2 4.5-3.5s2-3.5 3.5-4.5s3-2 5-2.5s3.5 0 5-.5s3.5-1.5 5.5-1.5s3.5 0 5 .5s3.5 2 5 3.5s2 3 3.5 4.5s3.5 1.5 4.5 3s1.5 4 2 6s1 4 1.5 6s2 5 2 6z"/><path class="wash deep" fill-rule="evenodd" style="--dl:-.01;--dh:-4.2;--dc:1.13;--pc:var(--fruit-lychee)" d="M344.5 187.5c0 .5 0 2 0 3.5s.5 2.5 0 4s-1 2.5-1.5 4s-1.5 2.5-2.5 3.5s-2.5 1-3.5 1.5s-2 1-3 1.5s-2 1-3 1s-2.5 1-4 1s-2.5-.5-3.5-1s-1.5-1.5-2.5-2.5s-2-1.5-2.5-2.5s-1.5-2.5-2.5-3.5s-1.5-2-2-3s-2-2.5-2.5-4s-.5-3.5-.5-4.5s.5-2.5 1-3.5s2-2 2.5-3s1-2.5 1.5-3s1.5-2 2.5-2.5s1.5-2 2.5-2.5s2-1 3-1.5s2.5 0 3.5.5s2 1.5 3 2s2 1 3 1s1.5-1 2.5-.5s1.5.5 2.5 1s2 1.5 3 2s1 2 1 3s1 2.5 1 4s.5 3 1 4z"/><path class="ink thin" d="M306.5 207c-.5-1.5-1.5-5-2-7s-2.5-3.5-3.5-5.5s-1-4-1-6s1-4.5 1.5-6.5s-.5-4 0-6s.5-4 1.5-5.5s1.5-3.5 2.5-5.5s2.5-2 4-3.5s1.5-4.5 3-5.5s3.5-1.5 5-2s3.5-.5 5.5-.5s3.5-1.5 5.5-1.5s3.5 1 5 1.5s3.5 2 5 3.5s2.5 2.5 3.5 4s4 3 4.5 3.5"/><path class="ink thick" d="M351.5 182c-.5 1-.5 4-1 6.5s-.5 4-1 6s-1 4-2 6s-1 5-2.5 6.5s-3.5 2.5-5 3.5s-3 3.5-5 4.5s-4 2.5-6 3s-4.5-1-6.5-1.5s-4-1-6-1.5s-4-2-5.5-3.5s-4-4-4.5-4.5m40-42.5c.5 1 1 4.5 1.5 6.5s1 3.5 1.5 5.5s1.5 4.5 2 5.5"/><path class="ink hair bumps" d="M341.5 169.5q1.5-2.5 3.5 0m-26.5 26q2.5-3.5 5 0m-20-13q2.5-4 5 0m26 7q2.5-3.5 5 0m-5.5-19q2-3 4 0m-2.5 1.5q2-3 4 0m-13 24.5q2-2.5 3.5 0m-6 4.5q2-3 4.5 0m-9-35.5q2.5-3.5 4.5 0m-15.5 34q2.5-3.5 5 0m20.5-23.5q2.5-3 4.5 0m-13-14q2-3 3.5 0m-8.5 11.5q2.5-3.5 5 0m-10.5 19.5q2-3 4 0m15.5-23.5q2.5-3.5 5 0m-7 13.5q1.5-3 3.5 0m-33-5.5q2-2.5 3.5 0m31.5-11.5q2.5-3 4.5 0m-5 14q1.5-2.5 3.5 0m-25.5 11q2-3 4 0m-14.5-4.5q2.5-3.5 5 0m6.5 16.5q2-3.5 4.5 0m7-19q2-3 4 0m-19.5 10.5q2-2.5 3.5 0m15.5-22q2-3.5 4.5 0m-7.5 27q2.5-4 5 0m-10.5-6.5q2.5-3.5 5 0m-1.5-29.5q2-3 3.5 0m-13.5 29q2-3 4 0m-12.5-1.5q1.5-3 3.5 0"/><path class="wash shine" d="M321 170.5c0 .5-.5 2-1.5 2.5s-2.5 1-3.5 1s-3-.5-4-1s-1.5-1.5-1.5-2.5s1-2 1.5-2.5s2.5-1 4-1s2.5.5 3.5 1s1.5 2 1.5 2.5s0 0 0 0z"/></g><g class="gp" data-g=".92" data-o="375.5 159.5"><path class="wash" fill-rule="evenodd" style="--dl:.016;--dh:4.8;--dc:1.09;--pc:var(--fruit-lychee)" d="M404.5 192c0 1 0 4.5-.5 6.5s-1 4.5-2 6.5s-1.5 3.5-2.5 5.5s-1.5 5-3 6.5s-2.5 4-4.5 5s-3.5 2.5-5.5 3.5s-4 4-6 4.5s-4.5-.5-7-1s-4-1.5-6-2.5s-4-2-6-3.5s-4-2-5.5-4s-2.5-4.5-3-7s-1.5-4.5-2-6.5s-2-4.5-2-6.5s1.5-5 2-7s.5-4 1-6s1-4 1.5-6s1-4.5 2-6s3-2.5 4.5-4s2.5-3 4-4.5s3-3 4.5-3.5s4 .5 6 0s3.5-1.5 5.5-1.5s4-.5 6 0s3.5 2 5 3s3 3.5 4 5s3 3 4 5s2.5 3.5 3 5.5s0 4.5.5 7s1.5 5 2 6z"/><path class="wash deep" fill-rule="evenodd" style="--dl:.016;--dh:4.8;--dc:1.09;--pc:var(--fruit-lychee)" d="M396 195.5c0 .5.5 2.5.5 4s-1 2.5-1 4s-1 3-1.5 4.5s-1 3.5-2 4s-3 1-4 1.5s-2.5 1-3.5 1.5s-2.5 3-3.5 3.5s-2.5-1-4-1.5s-2-1.5-3-2s-2.5-1-3.5-2s-1.5-1.5-2-2.5s-.5-3-1.5-4s-2.5-2-3.5-3s-3.5-2.5-3.5-4s1-3 1.5-4.5s.5-2.5 1-4s-.5-3 0-4s1.5-2 2.5-3s2-1.5 2.5-2.5s1-3.5 2-4.5s2.5-1.5 4-1s3 3 4.5 4s2-.5 3-.5s2 0 3 .5s1.5 1 2.5 1.5s1.5 1 2.5 1.5s2.5.5 3 1s1 3 1.5 4.5s-.5 2.5 0 4s2 2.5 2.5 3z"/><path class="ink thin" d="M355 216.5c-.5-1-1.5-5-2.5-7s-1.5-4-2-6.5s-2.5-4-2.5-6s1.5-4.5 1.5-7s.5-4 .5-6s.5-4.5 1.5-6.5s1.5-4 2.5-5.5s3-2.5 4-4s2.5-3.5 4-5s3-3.5 5-4s4 1 6 .5s3.5-1.5 5.5-1.5s4 1 6 1.5s3 2.5 4.5 4s3 2.5 4.5 4s3.5 3.5 4 4.5"/><path class="ink thick" d="M403 190c0 1 0 4.5-.5 6.5s-1 4.5-1.5 6.5s-1 4.5-2 6.5s-1.5 5-2.5 7s-3.5 3.5-5.5 4.5s-3.5 2-5.5 3.5s-4 3.5-6.5 4s-4.5-1-6.5-1.5s-4.5-1.5-6.5-2.5s-4-1.5-6-3s-4-4-5-5m42.5-44.5c.5 1 2 3.5 2.5 5.5s0 4.5.5 6.5s2 5 2.5 6"/><path class="ink hair bumps" d="M391 199q1.5-3 3.5 0m-26.5-24.5q2-3.5 4.5 0m2.5 13.5q2-3 4 0m-14-16.5q3-4.5 5.5 0m3.5 24.5q2.5-4 5 0m-19 13.5q2.5-4 5.5 0m25-19.5q2-3 4 0m-8.5 15q2.5-4 5 0m-27.5-35.5q2-2.5 4 0m-10.5 38.5q2.5-4 5 0m14-33.5q2-3 4 0m0 38.5q2-3 4.5 0m-16-19.5q2.5-4 4.5 0m-17.5-7.5q2.5-4 5 0m17.5 27.5q2.5-3.5 4.5 0m-9.5-17q2.5-4 5.5 0m-5.5 19q2-3 4 0m-.5-46.5q2.5-4 5.5 0m-7 10q2-3.5 4.5 0m8 15.5q2.5-4 5 0m-34 12.5q2-3.5 4 0m20-5.5q3-4 5.5 0m-12 5q2.5-3.5 4.5 0m-10.5-10.5q2.5-3.5 5 0m15.5-13.5q2.5-3.5 5 0m-25 11q2.5-4 5.5 0m-5.5 4.5q2.5-3.5 4.5 0m-12.5-27.5q2-3.5 4 0m-2.5 16.5q2.5-4 5.5 0m13-2.5q2-3.5 4.5 0m-24 3.5q2-3 4 0m-2.5 8q2.5-4 5.5 0m1.5-20.5q2.5-3.5 5 0"/><path class="wash shine" d="M370.5 178c0 .5-.5 2-1.5 2.5s-2.5 1-4 1s-3-.5-3.5-1s-2-2-2-2.5s1-2 2-3s2.5-1 3.5-1s3 .5 4 1s1.5 2.5 1.5 3s0 0 0 0z"/></g><g class="gp" data-g=".94" data-o="359.5 209.5"><path class="wash" fill-rule="evenodd" style="--dl:.01;--dh:-.2;--dc:1.13;--pc:var(--fruit-lychee)" d="M385 240c0 1 .5 4 1 6s1 5 .5 7s-2 3.5-3 5.5s-1.5 4.5-3 6.5s-2.5 4-4 5.5s-4 2.5-6 3s-4.5-.5-6.5 0s-4 1.5-6 1.5s-4.5 0-6.5-1.5s-3-4-4.5-6s-3-2-4.5-4s-2.5-3.5-3-5.5s-1-4-1.5-6s-.5-4-1-6s-2-4-2-6s.5-4.5 1-6s2.5-3.5 3-5.5s0-4.5 1-6s2.5-3.5 4-4.5s2.5-2.5 4-3.5s3.5-2.5 5-3.5s3.5-2.5 5-2.5s4 1.5 5.5 2.5s3.5 2 5 2.5s4 0 5.5 1s2 3 3.5 5s2 2.5 3 4s2 3 3 5s2 3.5 2 5.5s-.5 5-.5 6z"/><path class="wash deep" fill-rule="evenodd" style="--dl:.01;--dh:-.2;--dc:1.13;--pc:var(--fruit-lychee)" d="M378.5 243c-.5.5-.5 2.5-.5 4s0 3-.5 4s-2 1.5-3 2.5s-.5 2-1.5 3.5s-.5 2.5-1.5 3.5s-2 2-3.5 2s-2-.5-3-.5s-2.5 1-3.5 1s-3 .5-4 0s-2-2-3.5-2.5s-3-.5-4.5-1.5s-2.5-2-3-3.5s0-3 0-4.5s1-3 1-4s-1-2.5-1-4s.5-2.5 1-3.5s1.5-2 2-3s.5-2.5 1-3.5s1.5-1.5 3-1.5s2.5.5 3.5 0s1.5-.5 2.5-1.5s1-3 2-4s2 0 3 0s2 .5 3 .5s2.5-.5 3.5 0s1.5 2 2 3.5s1 2 2 3s1.5 1 2.5 2s1.5 2 2 3s-1 4-1 5z"/><path class="ink thin" d="M340.5 263c-.5-1-2.5-4-3-6s-1.5-4.5-1.5-6.5s-.5-4.5-1-6.5s-1-4-1-6s1-4 1.5-6s2-3 2.5-5s0-4.5 1-6s2.5-3 4-4.5s2.5-2.5 4-3.5s3-2 5-3s3-2 5-2.5s3.5 1 5.5 1.5s3 1 5 1.5s4 0 5.5 1.5s2 3.5 3 5s2.5 3 3.5 4.5s2.5 4 3 5"/><path class="ink thick" d="M384 238c0 1 .5 4 .5 6.5s.5 4.5 0 6.5s-2.5 3-3.5 5s-1 4.5-2.5 6.5s-2.5 4-4 5s-3.5 3-5.5 3.5s-4 1-6 1s-4.5 1.5-6.5 1.5s-4.5-.5-6.5-2s-3-3.5-4.5-5s-4-3-5-3.5m42-36.5c0 1 1.5 3.5 2 5.5s-.5 5-.5 6"/><path class="ink hair bumps" d="M365.5 234.5q1.5-2.5 3.5 0m-26 .5q2-3 3.5 0m16.5-6q2-3 4 0m2.5 29.5q1.5-2.5 3.5 0m-.5-35.5q2-3 4 0m-24.5 1q2-3.5 4 0m2 2q2.5-4 5 0m3 9.5q2-3.5 4.5 0m-3.5 22q2-3 3.5 0m3.5-7q2-3 4 0m-16-30.5q2-2.5 3.5 0m-27 25q2.5-4 5 0m18.5-2q2.5-3.5 5.5 0m-9.5 4q2-4 4.5 0m-13.5 7.5q2.5-3.5 5 0m-1-22.5q2-2.5 4 0m-3-8.5q2.5-3.5 4.5 0m-17.5 22.5q2.5-3.5 5 0m8.5-21q2-3.5 4.5 0m4.5 34q3-4 5.5 0m-25-6.5q2-3 4 0m-.5-3.5q2.5-3.5 5.5 0m13.5-5.5q2-3.5 4 0m-11.5-9q2-2.5 3.5 0m-11-10.5q2-3 4 0m-9.5 29q2-3 4 0m.5-.5q2-3 4 0m-9-11q2-3.5 4.5 0m23.5-3.5q2-3 4 0m-11 10q2-3 4 0m-15 0q2-3.5 4.5 0m9.5 1.5q2-3 4 0m-3.5 7.5q2-3 4 0m-6.5-28.5q2.5-3.5 4.5 0"/><path class="wash shine" d="M355 226.5c0 .5-.5 2-1.5 2.5s-2.5 1-3.5 1s-3-.5-4-1s-1.5-1.5-1.5-2.5s1-2 1.5-2.5s2.5-1 4-1s2.5.5 3.5 1s1.5 2 1.5 2.5s0 0 0 0z"/></g></svg>
